<?xml version="1.0" encoding="utf-8"?>
<!-- Generator: Adobe Illustrator 27.7.0, SVG Export Plug-In . SVG Version: 6.00 Build 0)  -->
<svg version="1.1" id="Ebene_1" xmlns="http://www.w3.org/2000/svg" xmlns:xlink="http://www.w3.org/1999/xlink" x="0px" y="0px"
	 viewBox="0 0 400 300" style="enable-background:new 0 0 400 300;" xml:space="preserve">
<style type="text/css">
	.st0{fill:#E7EFF4;}
</style>
<g>
	<path class="st0" d="M63.7,91.44c4.22,0,9.15,1.2,12.97,5.02c1.24,1.2,2.89,1.32,2.89,3.37c0,5.86-13.73,12.93-17.62,12.93
		c-0.16,0-0.24-0.12-0.24-0.2c0-0.08,0.04-0.12,0.12-0.12c0.8,0,13.41-8.79,13.41-13.37c0-2.25-2.45-5.34-10-5.34
		c-9.55,0-23.36,10.8-23.36,19.11c0,3.81,3.25,8.39,12.61,8.39c11.64,0,22.88-6.26,23.48-6.95c0.04-0.08,0.12-0.08,0.16-0.08
		c0.04,0,0.04,0,0.04,0.04s-0.04,0.12-0.12,0.24c-2.13,2.45-5.86,3.93-6.22,4.38c-2.21,2.21-7.03,5.5-17.62,5.5
		c-4.09,0-16.14-4.18-16.14-12.97C38.05,100.99,52.46,91.44,63.7,91.44z"/>
	<path class="st0" d="M91.36,98.95c1.36,0,2.33,0.84,2.33,1.57c0,3.37-9.23,14.61-11.04,14.61c-0.48,0-0.84-0.2-1.04-0.52
		c-0.96,1.81-1.57,3.37-1.57,4.5c0,0.56,0.2,1.77,1.73,1.77c4.09,0,12.93-7.11,12.93-7.11c0.04-0.08,0.12-0.08,0.16-0.08
		c0.04,0,0.08,0.04,0.08,0.12c0,0.12-0.08,0.32-0.16,0.4c-0.2,0.24-4.18,4.38-4.18,5.06v0.28c0,0.4-0.04,0.4-0.36,0.68
		c-0.36,0.4-4.58,3.53-7.07,3.53c-2.53,0-5.62-2.37-5.62-6.54C77.55,112.19,88.02,98.95,91.36,98.95z M82.2,113.96
		c1.81,0,10.2-11.04,10.2-12.65c0-0.12-0.04-0.2-0.16-0.2c-0.8,0-7.03,7.15-10.28,12.85H82.2z"/>
	<path class="st0" d="M107.49,114.12c0,0.64-2.29,1.49-2.29,2.53c0,1.08,0.32,2.53,1.69,2.53c4.86,0,7.51-4.18,7.71-4.38
		c0.04-0.04,0.04-0.04,0.08-0.04c0.08,0,0.2,0.12,0.2,0.4c0,0.48-4.3,7.47-6.62,7.47c-3.45,0-5.54-4.46-5.54-6.7v-0.44
		c-2.85,2.89-7.99,6.66-8.75,6.66c-1.08,0-2.21-1.69-2.21-3.81c0-3.01,8.67-12.08,13.53-12.08c1,0,3.25,1.89,3.25,2.73
		c0,1-1.57,1.73-2.13,1.73c-0.12,0-0.2-0.04-0.2-0.12c0-0.44,0.76-0.88,0.76-1.16c0-0.28-0.44-0.84-1.49-0.84
		c-4.38,0-11.76,7.99-11.76,9.51c0,0.12,0.08,0.2,0.2,0.2c1.24,0,8.19-5.3,9.84-6.54c0.24-0.44,0.44-0.72,0.64-0.72
		C105.69,111.03,107.49,113.16,107.49,114.12z"/>
	<path class="st0" d="M129.97,122.87c-3.01,0-5.26-3.29-5.26-7.11c0-0.32,0.04-0.6,0.08-0.92c-3.73,3.37-8.55,7.15-9.88,7.15
		c-1.12,0-2.89-2.25-2.89-3.81c0-0.84,5.82-7.83,7.11-10.16c-0.04-0.48-0.04-0.92-0.04-1.2c0-0.44,0.28-0.64,0.64-0.64
		c0.88,0,2.37,1.08,2.37,2.09c0,0.28-0.12,0.6-0.44,0.96c-0.88,0.88-7.55,7.87-7.55,9.47c0,0.2,0.12,0.32,0.36,0.32
		c1.77,0,8.63-5.42,12.16-8.31c1.32-1.69,2.89-2.69,3.25-2.69c0.56,0,1.4,0.52,1.4,1.65c0,0.28,0.24,0.36,0.24,0.6
		c0,0.16-0.12,0.4-0.56,0.84c-3.13,3.17-4.09,4.86-4.09,6.14c0,1.24,1.49,2.49,2.45,2.49c5.14,0,13.41-7.95,13.41-7.95
		c0.08-0.08,0.16-0.12,0.2-0.12c0.04,0,0.04,0.04,0.04,0.08c0,0.2-0.24,0.72-0.44,0.92C138.76,117.85,134.59,122.87,129.97,122.87z"
		/>
	<path class="st0" d="M148.4,116.09c-2.85,2.89-7.91,6.58-8.67,6.58c-1.08,0-2.21-1.65-2.21-3.81c0-2.97,8.67-12.08,13.57-12.08
		c0.4,0,0.84,0.48,1.2,1.08c3.53-5.66,8.23-11.04,9.72-11.04c1.36,0,1.73,1.69,1.73,2.41c0,1.2-5.46,7.51-9.51,11.6
		c-1.81,3.05-3.17,6.1-3.17,8.39c0,1.08,0.68,2.01,2.05,2.01c4.86,0,7.51-4.18,7.71-4.38c0.12-0.12,0.28,0,0.28,0.36
		c0,0.48-5.06,7.43-7.35,7.43c-3.49,0-5.58-4.5-5.58-6.74C148.16,117.37,148.24,116.73,148.4,116.09z M150.12,111.71l0.24-0.48
		c-0.36,0-0.64-0.08-0.64-0.2c0-0.44,1.2-0.52,1.2-1.08c0-0.28-0.2-0.4-0.44-0.4c-4.13,0-11,7.55-11,9.07c0,1.4,8.91-5.46,10.24-6.5
		C149.8,111.95,149.96,111.87,150.12,111.71z"/>
	<path class="st0" d="M169.11,109.9c0,0.92-4.34,6.02-4.34,8.15c0,0.4,0.28,1.36,1.45,1.36c5.14,0,13.25-7.63,13.25-7.63
		c0.08-0.08,0.16-0.12,0.2-0.12c0.04,0,0.04,0.04,0.04,0.08c0,0.2-0.2,0.68-0.44,0.92c-0.32,0.36-7.03,9.47-11.36,9.47
		c-3.41,0-5.62-3.77-5.62-5.7c0-1.93,3.57-7.39,3.57-8.07c0-0.68,0.08-1.12,0.4-1.12C166.98,107.26,169.11,108.94,169.11,109.9z
		 M171.08,101.03c0.92,0,2.33,1.36,2.33,2.21c0,0.56-2.77,2.09-2.77,3.37c0,0.24-0.04,0.36-0.36,0.36c-0.36,0-1.28-0.88-1.28-2.01
		C168.99,103.28,170.15,101.03,171.08,101.03z"/>
	<path class="st0" d="M190.75,114.12c0,0.64-2.29,1.49-2.29,2.53c0,1.08,0.32,2.53,1.69,2.53c4.86,0,7.51-4.18,7.71-4.38
		c0.04-0.04,0.04-0.04,0.08-0.04c0.08,0,0.2,0.12,0.2,0.4c0,0.48-4.3,7.47-6.62,7.47c-3.45,0-5.54-4.46-5.54-6.7v-0.44
		c-2.85,2.89-7.99,6.66-8.75,6.66c-1.08,0-2.21-1.69-2.21-3.81c0-3.01,8.67-12.08,13.53-12.08c1,0,3.25,1.89,3.25,2.73
		c0,1-1.57,1.73-2.13,1.73c-0.12,0-0.2-0.04-0.2-0.12c0-0.44,0.76-0.88,0.76-1.16c0-0.28-0.44-0.84-1.49-0.84
		c-4.38,0-11.76,7.99-11.76,9.51c0,0.12,0.08,0.2,0.2,0.2c1.24,0,8.19-5.3,9.84-6.54c0.24-0.44,0.44-0.72,0.64-0.72
		C188.94,111.03,190.75,113.16,190.75,114.12z"/>
	<path class="st0" d="M237.11,93.28c1.77,0,3.49,0.8,5.14,2.41c0.76,0.76,3.85,1.85,3.85,4.46c0,3.61-8.67,8.31-10.8,8.31
		c-2.73,0-5.14,1.61-5.74,1.61c-0.04,0-0.08-0.04-0.08-0.08c0-0.04,0.04-0.12,0.12-0.2c0.24-0.2,13.65-7.15,13.65-10.52
		c0-1.08-1.45-1.93-3.61-1.93c-13.77,0-27.66,7.35-27.66,11.72c0,3.17,17.82,4.7,22,8.87c0.52,0.52,1.32,0.48,1.32,2.77
		c0,1.57-5.86,3.57-10.64,3.57c-4.74,0-6.62-0.68-7.11-0.68c-0.2,0-0.56,0.16-0.96,0.16c-1.2,0-1.73-0.88-1.73-2.01
		c0-1.69,2.29-5.1,4.05-5.1c0.12,0,0.16,0.04,0.16,0.08c0,0.04-0.04,0.12-0.08,0.16c-0.36,0.36-0.92,1.08-0.92,1.85
		c0,1.12,1.24,2.29,6.46,2.29c4.58,0,8.19-0.96,8.19-1.73c0-2.61-20.59-5.62-23.28-8.31c-1.57-1.57-1.85-2.65-1.85-4.34
		C207.6,101.76,223.38,93.28,237.11,93.28z"/>
	<path class="st0" d="M258.06,109.7c0,1.61-4.62,2.69-4.98,2.69c-0.2,0-0.32-0.12-0.32-0.2s0.12-0.16,0.32-0.16
		c0.44,0,2.89-2.65,2.89-3.33c0-0.2-0.48-0.24-0.68-0.24c-4.98,0-10.12,5.78-10.12,8.91c0,1.16,0.72,1.97,2.41,1.97
		c9.39,0,17.18-7.31,18.15-8.23c0.04-0.04,0.12-0.08,0.2-0.08c0.04,0,0.08,0,0.08,0.08c0,0.16-0.24,0.56-1.08,1.41
		c-2.41,2.41-7.23,10.16-16.66,10.16c-1.77,0-5.06-3.29-5.06-7.03c0-3.53,4.94-9.03,10.8-9.03
		C255.29,106.61,258.06,108.58,258.06,109.7z"/>
	<path class="st0" d="M280.3,100.23c0,0.24-0.24,0.52-0.56,0.52c-0.44,0-0.08-0.84-1.08-0.84c-5.7,0-12.49,14.21-12.49,16.42
		c1.97-1.93,6.26-6.26,6.99-6.26c0,0,0.16-0.24,0.16-0.48c0-0.4,1.81-2.09,2.93-2.09c1.12,0,2.93,0.8,2.93,1.41
		s-1.69,2.05-1.69,5.58c0,2.45,2.21,6.62,4.78,6.62c2.09,0,3.97-2.65,3.97-1.77c0,0.92-3.05,4.26-4.66,4.26
		c-2.73,0-7.87-5.58-7.87-9.88c0-0.6,0.04-2.65,0.04-2.65c-1,0-8.15,6.9-8.15,9.43c0,0.32-0.52,1.12-1.04,1.12
		c-1.04,0-2.65-3.41-2.65-4.62c0-0.52,0.32-0.96,0.72-1.4c0.68-0.64,4.46-11.08,8.79-15.42c1.73-1.73,2.49-2.77,3.73-2.77
		C276.41,97.42,280.3,98.7,280.3,100.23z"/>
	<path class="st0" d="M300.57,122.87c-3.01,0-5.26-3.29-5.26-7.11c0-0.32,0.04-0.6,0.08-0.92c-3.73,3.37-8.55,7.15-9.88,7.15
		c-1.12,0-2.89-2.25-2.89-3.81c0-0.84,5.82-7.83,7.11-10.16c-0.04-0.48-0.04-0.92-0.04-1.2c0-0.44,0.28-0.64,0.64-0.64
		c0.88,0,2.37,1.08,2.37,2.09c0,0.28-0.12,0.6-0.44,0.96c-0.88,0.88-7.55,7.87-7.55,9.47c0,0.2,0.12,0.32,0.36,0.32
		c1.77,0,8.63-5.42,12.16-8.31c1.32-1.69,2.89-2.69,3.25-2.69c0.56,0,1.41,0.52,1.41,1.65c0,0.28,0.24,0.36,0.24,0.6
		c0,0.16-0.12,0.4-0.56,0.84c-3.13,3.17-4.09,4.86-4.09,6.14c0,1.24,1.49,2.49,2.45,2.49c5.14,0,13.41-7.95,13.41-7.95
		c0.08-0.08,0.16-0.12,0.2-0.12s0.04,0.04,0.04,0.08c0,0.2-0.24,0.72-0.44,0.92C309.36,117.85,305.19,122.87,300.57,122.87z
		 M295.43,102.16c0-0.28,0.28-0.52,0.72-0.52c0.4,0,1.32,0.92,1.32,1.69c0,0.8-1.2,1.97-2.17,1.97c-0.96,0-1.65-0.72-1.65-1.32
		C293.67,102.88,295.43,102.44,295.43,102.16z M298.6,104.81c0-0.44,0.92-0.96,0.92-0.96s0.72-1.16,1.36-1.16
		c0.64,0,1.08,0.8,1.08,1.65c0,0.84-1.12,1.85-2.21,1.85C299.37,106.17,298.6,105.69,298.6,104.81z"/>
	<path class="st0" d="M310.6,116.93c0-5.02,10.48-18.27,13.81-18.27c1.36,0,2.33,0.84,2.33,1.57c0,3.37-9.23,14.61-11.04,14.61
		c-0.48,0-0.84-0.2-1.04-0.52c-0.96,1.81-1.57,3.41-1.57,4.54c0,0.52,0.2,1.77,1.77,1.77c3.29,0,7.55-2.05,11.84-4.98
		c4.34-9.31,13.33-20.71,17.18-20.71c0.72,0,1.2,0.48,1.44,0.72c0.24,0.24,1.61,0.24,1.61,1.61c0,4.26-10.4,15.66-19.99,21.92
		c-0.8,2.09-1.24,3.97-1.24,5.66c0,3.21,2.73,4.26,5.66,4.26c2.85,0,5.9-0.96,6.82-1.89c0.24-0.24,0.28-0.44,0.28-0.56v-0.24h0.08
		c0.12,0,0.28,0.16,0.28,0.6c0,0.76-4.3,4.9-8.07,4.9c-3.45,0-6.42-1.85-6.42-8.03c0-1,0.16-2.17,0.52-3.41
		c-3.21,1.85-6.22,3.05-8.63,3.05C313.7,123.51,310.6,121.1,310.6,116.93z M325.46,101.03c0-0.12-0.04-0.2-0.16-0.2
		c-0.8,0-7.03,7.15-10.28,12.85c0.08,0.04,0.16,0.04,0.24,0.04C317.11,113.72,325.46,102.64,325.46,101.03z M344.37,96.58
		c-2.13,0-9.84,8.43-14.65,16.86c7.95-6.1,15.17-14.21,15.17-16.42C344.89,96.74,344.61,96.58,344.37,96.58z"/>
	<path class="st0" d="M354.64,107.9c0.96,0.24,2.01,0.92,2.01,1.61c0,0.84-4.66,6.42-11.08,6.42c-0.72,0-1.16-0.24-1.41-0.56
		c-0.4,0.84-0.64,1.61-0.64,2.25c0,1.16,0.72,1.97,2.45,1.97c9.43,0,17.22-7.31,18.15-8.23c0.04-0.04,0.12-0.08,0.2-0.08
		c0.04,0,0.08,0,0.08,0.08c0,0.16-0.24,0.56-1.08,1.41c-2.41,2.41-7.23,10.16-16.62,10.16c-1.77,0-5.06-3.29-5.06-7.03
		c0-3.53,4.9-9.03,10.76-9.03C353.11,106.85,354.16,107.26,354.64,107.9z M353.76,108.7c-3.81,0-7.51,3.09-9.23,5.98
		c0.24,0.08,0.52,0.12,0.88,0.12c3.25,0,8.31-4.66,8.31-5.9L353.76,108.7z"/>
	<path class="st0" d="M375.67,110.35c0,0.84-5.18,4.46-5.18,8.27c0,0.76,0.36,1.04,0.96,1.04c2.73,0,10.56-6.66,11.68-7.55
		c0.12-0.12,0.24-0.16,0.32-0.16c0.04,0,0.08,0.04,0.08,0.08c0,0.08-0.04,0.16-0.2,0.28c-2.65,2.13-5.58,6.26-7.15,7.55
		c-1.53,1.24-2.89,2.25-5.7,2.25c-2.17,0-2.89-2.01-2.89-3.81c0-2.77,1.61-6.22,3.77-7.79c0,0-7.67,0.04-7.67-2.97
		c0-1.45,1.28-2.29,1.93-2.29c0.56,0,1.2,0.64,1.2,1.36c0,0.4-0.12,0.76-0.32,1c1.97,0.48,5.58,0.72,6.86,0.72
		C374.99,108.34,375.67,109.78,375.67,110.35z"/>
	<path class="st0" d="M107.3,151.96c0-1.34-0.03-2.44-0.11-3.51h2.06l0.11,2.09h0.08c0.72-1.23,1.93-2.38,4.07-2.38
		c1.77,0,3.1,1.07,3.67,2.6h0.05c0.4-0.72,0.91-1.28,1.45-1.69c0.78-0.59,1.63-0.91,2.86-0.91c1.71,0,4.26,1.12,4.26,5.62v7.63h-2.3
		v-7.33c0-2.49-0.91-3.99-2.81-3.99c-1.34,0-2.38,0.99-2.78,2.14c-0.11,0.32-0.19,0.75-0.19,1.18v8h-2.3v-7.76
		c0-2.06-0.91-3.56-2.7-3.56c-1.47,0-2.54,1.18-2.92,2.35c-0.13,0.35-0.19,0.75-0.19,1.15v7.81h-2.3V151.96z"/>
	<path class="st0" d="M141.35,154.82c0,4.79-3.32,6.88-6.45,6.88c-3.51,0-6.21-2.57-6.21-6.66c0-4.34,2.84-6.88,6.42-6.88
		C138.83,148.16,141.35,150.86,141.35,154.82z M131.07,154.96c0,2.84,1.63,4.98,3.93,4.98c2.25,0,3.93-2.11,3.93-5.03
		c0-2.19-1.1-4.98-3.88-4.98C132.27,149.93,131.07,152.49,131.07,154.96z"/>
	<path class="st0" d="M155.5,142.4v15.66c0,1.15,0.03,2.46,0.11,3.35h-2.11l-0.11-2.25h-0.05c-0.72,1.45-2.3,2.54-4.42,2.54
		c-3.13,0-5.54-2.65-5.54-6.58c-0.03-4.31,2.65-6.96,5.81-6.96c1.98,0,3.32,0.94,3.91,1.98h0.05v-7.73H155.5z M153.15,153.73
		c0-0.29-0.03-0.7-0.11-0.99c-0.35-1.5-1.63-2.73-3.4-2.73c-2.44,0-3.88,2.14-3.88,5c0,2.62,1.28,4.79,3.83,4.79
		c1.58,0,3.02-1.04,3.45-2.81c0.08-0.32,0.11-0.64,0.11-1.02V153.73z"/>
	<path class="st0" d="M160.72,155.36c0.05,3.19,2.09,4.5,4.44,4.5c1.69,0,2.7-0.29,3.59-0.67l0.4,1.69c-0.83,0.37-2.25,0.8-4.31,0.8
		c-3.99,0-6.37-2.62-6.37-6.53c0-3.91,2.3-6.99,6.08-6.99c4.23,0,5.35,3.72,5.35,6.1c0,0.48-0.05,0.86-0.08,1.1H160.72z
		 M167.62,153.67c0.03-1.5-0.62-3.83-3.27-3.83c-2.38,0-3.43,2.19-3.61,3.83H167.62z"/>
	<path class="st0" d="M172.81,152.49c0-1.53-0.03-2.84-0.11-4.04h2.06l0.08,2.54h0.11c0.59-1.74,2.01-2.84,3.59-2.84
		c0.27,0,0.45,0.03,0.67,0.08v2.22c-0.24-0.05-0.48-0.08-0.8-0.08c-1.66,0-2.84,1.26-3.16,3.02c-0.05,0.32-0.11,0.7-0.11,1.1v6.9
		h-2.33V152.49z"/>
	<path class="st0" d="M181.67,151.96c0-1.34-0.03-2.44-0.11-3.51h2.09l0.13,2.14h0.05c0.64-1.23,2.14-2.44,4.28-2.44
		c1.79,0,4.58,1.07,4.58,5.51v7.73h-2.36v-7.47c0-2.09-0.78-3.83-3-3.83c-1.55,0-2.76,1.1-3.16,2.41c-0.11,0.29-0.16,0.7-0.16,1.1
		v7.79h-2.35V151.96z"/>
	<path class="st0" d="M197.84,155.36c0.05,3.19,2.09,4.5,4.44,4.5c1.69,0,2.7-0.29,3.59-0.67l0.4,1.69c-0.83,0.37-2.25,0.8-4.31,0.8
		c-3.99,0-6.37-2.62-6.37-6.53c0-3.91,2.3-6.99,6.08-6.99c4.23,0,5.35,3.72,5.35,6.1c0,0.48-0.05,0.86-0.08,1.1H197.84z
		 M204.74,153.67c0.03-1.5-0.62-3.83-3.27-3.83c-2.38,0-3.43,2.19-3.61,3.83H204.74z"/>
	<path class="st0" d="M218.01,145.35h-5.49v-1.98h13.35v1.98h-5.51v16.06h-2.36V145.35z"/>
	<path class="st0" d="M226.6,152.49c0-1.53-0.03-2.84-0.11-4.04h2.06l0.08,2.54h0.11c0.59-1.74,2.01-2.84,3.59-2.84
		c0.27,0,0.45,0.03,0.67,0.08v2.22c-0.24-0.05-0.48-0.08-0.8-0.08c-1.66,0-2.84,1.26-3.16,3.02c-0.05,0.32-0.11,0.7-0.11,1.1v6.9
		h-2.33V152.49z"/>
	<path class="st0" d="M242.39,161.41l-0.19-1.63h-0.08c-0.72,1.02-2.11,1.93-3.96,1.93c-2.62,0-3.96-1.85-3.96-3.72
		c0-3.13,2.78-4.84,7.79-4.82v-0.27c0-1.07-0.29-3-2.94-3c-1.2,0-2.46,0.37-3.37,0.96l-0.54-1.55c1.07-0.7,2.62-1.15,4.26-1.15
		c3.96,0,4.92,2.7,4.92,5.3v4.84c0,1.12,0.05,2.22,0.21,3.1H242.39z M242.04,154.8c-2.57-0.05-5.49,0.4-5.49,2.92
		c0,1.53,1.02,2.25,2.22,2.25c1.69,0,2.76-1.07,3.13-2.17c0.08-0.24,0.13-0.51,0.13-0.75V154.8z"/>
	<path class="st0" d="M258.96,157.87c0,1.34,0.03,2.52,0.11,3.53h-2.09l-0.13-2.11h-0.05c-0.62,1.04-1.98,2.41-4.28,2.41
		c-2.03,0-4.47-1.12-4.47-5.67v-7.57h2.36v7.17c0,2.46,0.75,4.12,2.89,4.12c1.58,0,2.68-1.1,3.1-2.14c0.13-0.35,0.21-0.78,0.21-1.2
		v-7.95h2.36V157.87z"/>
	<path class="st0" d="M262.86,152.49c0-1.53-0.03-2.84-0.11-4.04h2.06l0.08,2.54h0.11c0.59-1.74,2.01-2.84,3.59-2.84
		c0.27,0,0.45,0.03,0.67,0.08v2.22c-0.24-0.05-0.48-0.08-0.8-0.08c-1.66,0-2.84,1.26-3.16,3.02c-0.05,0.32-0.11,0.7-0.11,1.1v6.9
		h-2.33V152.49z"/>
	<path class="st0" d="M274.34,144.81c0.03,0.8-0.56,1.45-1.5,1.45c-0.83,0-1.42-0.64-1.42-1.45c0-0.83,0.62-1.47,1.47-1.47
		C273.78,143.34,274.34,143.98,274.34,144.81z M271.72,161.41v-12.95h2.35v12.95H271.72z"/>
	<path class="st0" d="M277.98,151.96c0-1.34-0.03-2.44-0.11-3.51h2.09l0.13,2.14h0.05c0.64-1.23,2.14-2.44,4.28-2.44
		c1.79,0,4.58,1.07,4.58,5.51v7.73h-2.36v-7.47c0-2.09-0.78-3.83-3-3.83c-1.55,0-2.76,1.1-3.16,2.41c-0.11,0.29-0.16,0.7-0.16,1.1
		v7.79h-2.36V151.96z"/>
	<path class="st0" d="M304,148.45c-0.05,0.94-0.11,1.98-0.11,3.56v7.52c0,2.97-0.59,4.79-1.85,5.91c-1.26,1.18-3.08,1.55-4.71,1.55
		c-1.55,0-3.27-0.38-4.31-1.07l0.59-1.79c0.86,0.54,2.19,1.02,3.8,1.02c2.41,0,4.18-1.26,4.18-4.52v-1.45h-0.05
		c-0.72,1.2-2.11,2.17-4.12,2.17c-3.21,0-5.51-2.73-5.51-6.32c0-4.39,2.86-6.88,5.83-6.88c2.25,0,3.48,1.18,4.04,2.25h0.05
		l0.11-1.95H304z M301.56,153.56c0-0.4-0.03-0.75-0.13-1.07c-0.43-1.36-1.58-2.49-3.29-2.49c-2.25,0-3.85,1.9-3.85,4.9
		c0,2.54,1.28,4.66,3.83,4.66c1.45,0,2.76-0.91,3.27-2.41c0.13-0.4,0.19-0.86,0.19-1.26V153.56z"/>
	<path class="st0" d="M309.11,155.36c0.05,3.19,2.09,4.5,4.44,4.5c1.69,0,2.7-0.29,3.59-0.67l0.4,1.69c-0.83,0.37-2.25,0.8-4.31,0.8
		c-3.99,0-6.37-2.62-6.37-6.53c0-3.91,2.3-6.99,6.07-6.99c4.23,0,5.35,3.72,5.35,6.1c0,0.48-0.05,0.86-0.08,1.1H309.11z
		 M316.01,153.67c0.03-1.5-0.62-3.83-3.27-3.83c-2.38,0-3.43,2.19-3.61,3.83H316.01z"/>
</g>
</svg>
