<?xml version="1.0" encoding="utf-8"?>
<!-- Generator: Adobe Illustrator 27.7.0, SVG Export Plug-In . SVG Version: 6.00 Build 0)  -->
<svg version="1.1" id="Ebene_1" xmlns="http://www.w3.org/2000/svg" xmlns:xlink="http://www.w3.org/1999/xlink" x="0px" y="0px"
	 viewBox="0 0 595.28 841.89" style="enable-background:new 0 0 595.28 841.89;" xml:space="preserve">
<g>
	<path d="M118.92,77.87l0.18-0.18l0.18,0.88h-0.26l0.13,0.31l-0.13,0.09l-0.13-0.13l-0.18-0.26l-0.18-0.31L118.48,78v-0.26
		l0.04-0.35l0.18,0.26v0.09l0.09,0.22L118.92,77.87z M147,67.79l0.09-0.31l0.75-0.04l-0.31,0.92l-0.13,0.04l-0.13,0.31l-0.09,0.31
		l0.09,0.35l-0.22,0.44l0.09-0.4l-0.31,0.18l-0.18,0.35l-0.18,0.4l-0.18,0.26l-0.26,0.31l-0.26,0.62v0.18l-0.18,0.31l-0.09,0.13
		l-0.18,0.4l-0.09,0.26l-0.18,0.26l-0.22,0.26L144.62,74l-0.13-0.09l-0.35,0.44l-0.31,0.75l-0.35,0.22l-0.04,0.13l-0.35,0.48
		l-0.13,0.44h-0.04l-0.04-0.18h-0.04l-0.09,0.13l-0.26,0.26l-0.13,0.09l-0.35,0.7l0.13,0.09l-0.18,0.35l-0.31,0.44l-0.04-0.31h-0.04
		l-0.4,0.35v0.35l-0.22,0.4l-0.04-0.04l0.04-0.22l-0.66,0.7h-0.04l0.09-0.13l-0.09-0.04l-0.4,0.48l-0.22,0.62l-0.09,0.35l-0.09-0.22
		l-0.22,0.4l-0.22-0.22l0.44-0.4l0.09-0.22l-0.26,0.09l-0.4,0.53l0.09-0.35l-0.26,0.18l-0.13,0.57l-0.09,0.09v0.04l0.31-0.13
		l-0.13,0.26l-0.62,0.44l-0.53,0.57l0.04-0.31l0.22-0.18l-0.09-0.13l-0.31,0.18l-0.22,0.4l0.04,0.09l-0.18,0.31l-0.04-0.04
		l-0.53,0.22l-0.35,0.22l-0.04-0.04l0.13-0.18l0.09-0.18h-0.18l-0.57,0.53l0.18,0.04l-1.14,0.66l-0.18-0.22l-1.06,0.48h-0.18
		l-0.4-0.13l0.26-0.09l-0.18-0.09l-0.44,0.18v-0.04l-1.36,0.35l-1.72,0.26l-0.18-0.09l-0.53-0.13l0.31,0.18l-0.35,0.04l-0.66-0.13
		h0.31l0.04-0.04l-0.44-0.13l-0.92-0.09h-0.48l-0.44-0.22l0.09-0.04l-0.26-0.13l0.04-0.04l0.84,0.09V83.9l-0.31-0.13l-0.44-0.09
		l-0.57-0.18l-0.13,0.04h-0.26l0.13-0.09l-0.44-0.26l-0.79-0.44l-0.4-0.31h-0.04l-0.48-0.57l-0.04-0.09l0.04-0.18l-0.35-0.35
		l-0.75-0.88l-0.35-0.48h-0.26l0.04,0.22l0.13,0.44l-0.04-0.04l-0.66-0.92l-0.53-0.13l0.26,0.44l-0.48-0.7l-0.4-0.84l-0.09-0.48
		l-0.35-0.44l-0.13-0.31l0.4-0.18l-0.09-0.18l-0.13,0.13l0.18-0.26l-0.35-0.84v-0.44l-0.09-0.13l-0.04-0.13l-0.09-0.22l0.09-0.09
		v-0.4l0.04-0.22v-0.84v-0.13l-0.13-0.7l0.22-1.28l-0.04-0.31l0.09-0.53l0.18-0.18l0.22-0.4l-0.26-0.13l-0.26-0.09l0.18-0.97
		l0.09-0.31l-0.04-0.35l0.04-0.31l0.18-0.26v-0.26l0.13-0.75l0.35-0.18l-0.13-0.22l0.18-0.35l0.09-0.31l0.13-0.13l0.18-0.18
		l-0.18-0.53v-0.04l0.04-0.35l0.44-0.26l-0.09-0.09l-0.22,0.04l0.26-1.01l-0.18-0.09l0.35-1.23l0.31-0.7l0.18-0.22l-0.13,0.31h0.09
		l0.13-0.22l0.4-0.97l-0.04-0.22l-0.09-0.31l0.13-0.31h0.04l0.04,0.26l0.26-0.26l0.13-0.44l-0.04-0.13l-0.13,0.18l-0.13,0.09
		l-0.04-0.13l0.35-0.88l0.04,0.22l0.09,0.13l0.13-0.13l0.18-0.31l0.04-0.31l0.4-0.79l-0.04-0.35h0.13l0.44-0.22l0.26-0.22
		l-0.22-0.35l0.35,0.04l0.13-0.79l0.26-0.53l-0.22-0.04l0.18-0.35l0.13-0.4l0.26,0.18l0.18-0.31l-0.04-0.09h-0.13l-0.09,0.13
		l0.09-0.22l0.22-0.04l0.35-0.26h-0.22L125,52.26l0.26-0.26l0.18-0.13l0.18-0.44l0.44-0.62l-0.26,0.31l-0.04-0.09l0.62-0.79h0.04
		l0.13-0.26l0.48-0.66l0.44-0.66l0.09-0.04l0.13-0.35h0.04l0.35-0.35l0.31-0.35l0.4-0.57l0.09-0.09l0.75-0.79l0.04-0.26l0.7-0.7
		l0.84-0.88l0.7-0.57l3.12-1.41l0.88,0.13h0.48l1.89-0.26l0.75-0.04l0.62,0.04l1.06,0.48l0.35,0.26l0.44,0.4l0.13,0.44l0.18,0.18
		l0.18-0.04l0.53,0.18l-0.22,0.22l0.04,0.04h0.22l0.18,0.04l0.31,0.88l-0.09,0.26l-0.13-0.35h-0.13v0.04l0.04,0.48l0.4-0.18
		l-0.09,0.53l0.26,0.35l-0.18,0.26l-0.09,0.4L143,47.77l0.35,0.04l-0.13,0.48l-0.09,0.53l0.04,0.04l0.09-0.22l0.04,0.18l-0.35,0.31
		l0.22,0.18l-0.04,0.7l-0.09,0.7l0.18-0.22v0.09l-0.48,0.4l0.13,0.09l-0.26,0.18l0.31,0.13l-0.75,0.62l-0.04-0.04l0.22-0.26
		l0.31-1.1l-0.04-0.13l0.18-0.44l-0.22,0.04l-0.18,0.88l-0.53,0.7l0.22,0.62v0.09l-0.26,0.62l-0.26,0.4h0.35l0.04-0.09l0.04,0.22
		l-0.31,0.18l-0.09-0.18l-0.09,0.04l-0.04,0.35l-0.53,1.1v0.04l-0.13,0.31l-0.04,0.13l-0.44,0.57l-0.04,0.18v0.26v0.22l-0.22,0.09
		L140,56.92l0.13,0.13L140,57.41l-0.4,0.13l-0.31,0.26h0.35l-0.31,0.44l-0.26,0.18l-0.44,0.57l0.04-0.35l-0.09,0.04l-0.4,0.13
		l0.22,0.09l0.04,0.04l-0.22,0.09l0.4-0.04v0.04l-0.35,0.53l-0.09,0.22l-0.48,0.4l-0.09,0.26h-0.04l-0.04-0.18l-0.66,0.35v0.04
		l0.35-0.09l-0.44,0.35l-0.57,0.48l-0.04,0.09v-0.31l0.44-0.66h0.09l0.31-0.31l-0.31-0.18l0.09-0.18h0.09l0.22-0.04l0.4-0.53
		l0.09-0.26l0.13-0.31l0.35-0.44l0.13-0.26l0.18-0.13l0.53-0.09l0.09-0.09l-0.13,0.04l-0.22-0.13l-0.31-0.04l-0.09-0.09l0.13-0.09
		l0.26-0.04l-0.18-0.4l0.35-0.04l-0.18,0.31l0.18-0.13v-0.35v-0.18l0.09-0.4l0.09-0.31l0.18-0.4l0.22-0.04l-0.13,0.35h0.04l0.31-0.7
		l0.09-0.13l0.26-0.13l0.09-0.09l-0.22-0.18l0.09-0.09l0.31-0.31v-0.04l-0.26-0.31l0.35-0.4l0.13,0.09l0.22-0.18l-0.13-0.4
		l-0.26-0.13L140,53.53l-0.26,0.09l0.22-0.44l0.09-0.18l0.09-0.7l0.22-0.31l0.04-0.22l0.26-0.13l0.18-0.62l-0.13-0.26l0.09-0.97
		l0.09-0.13l0.04-0.31l-0.04-0.13l0.18-0.92l-0.13-0.44l-0.13-0.04l-0.04-0.57l-0.18-0.35l-0.35-0.48l-0.7-1.8l-0.92-0.7l-0.44-0.31
		l-0.97-0.31l-0.66,0.09l-1.54,0.48l-0.35,0.26l-0.97,0.62L133.36,45l-0.7,0.84l-1.06,1.32l-0.62,0.79l-0.57,0.7l-0.75,1.1
		l-0.4,0.62l-0.22,0.44l-0.4,0.75l-0.75,1.32l-0.22,0.53l-0.22,0.26l-0.04-0.04l0.04,0.18l-0.35,0.53l-0.18,0.48l-0.57,0.79
		l0.22,0.09h-0.09l-0.26,0.62l-0.22,0.53l-0.22,0.18l-0.09,0.26l-0.66,1.58l-0.09,0.44l0.62-0.88l0.09,0.04l-0.79,1.14l0.04,0.04
		l0.31-0.22l-0.26,0.31l-0.26,0.04v0.35l-0.13,0.48l-0.04,0.04l-0.09,0.31l0.35-0.13l-0.04,0.26l-0.31,0.88l-0.13,0.18l-0.44,0.48
		l0.09,0.31l0.13-0.22h0.04l-0.09,0.48l-0.13,0.09l-0.13-0.18l-0.26,0.53v0.04l0.22,0.22l-0.13,0.26v0.44v0.26l-0.22,0.44
		l-0.18,0.26h0.44l-0.44,0.31l0.13,0.13l-0.18,0.18h0.31l-0.18,0.26l0.13,0.09l-0.18,0.09l-0.09,0.18l0.04,0.4l0.04,0.26l-0.31,0.53
		l0.18-0.13l-0.18,0.31l-0.13,0.09l0.13,0.04h0.22l-0.22,0.22l-0.13,0.53l0.18-0.13v0.26l-0.04,0.31l-0.13,0.22l-0.4,0.35l0.4,0.04
		l-0.26,0.97l-0.04,0.09v0.4l-0.04,0.31l-0.31,0.44l-0.09,0.22l0.26,0.09l-0.04,0.62l-0.13,0.22l0.13,0.31l0.09,0.26l-0.53,0.4
		l0.26,0.04l0.18,0.13l-0.22,1.01l0.04,0.44l-0.26,0.22l0.09,0.13l0.18,0.09l-0.18,0.13v0.18l0.04,0.48l0.18-0.57l0.18-0.04
		l-0.04,0.48l-0.22,0.88l0.22,0.04v-0.13v-0.62v-0.18l0.13,0.18l0.04,0.44l0.18,0.57l0.09,0.18l-0.18,0.04l-0.09,0.26l0.18,0.44
		v0.66l0.22,0.26l0.22-0.57l0.04,0.13l-0.09,0.22l0.04,0.26l-0.22,0.09v0.04l0.44,0.53l0.7,0.44l-0.13,0.18l0.35,0.22l0.13,0.09
		l0.13,0.22l0.88,0.79l0.18,0.04l-0.18-0.35v-0.26h0.04l0.44-0.09v0.26l-0.18,0.4v0.22l0.35-0.04l0.09,0.13l1.58,0.44l0.09,0.04
		l0.48,0.04l0.26-0.04l0.84,0.18l0.44-0.04l0.26-0.13l0.09,0.09l1.06-0.09l1.36-0.31l0.53-0.22l2.2-1.01h0.13l0.57-0.31l1.45-1.1
		l0.4-0.22l1.41-1.36l0.31-0.22l0.13-0.22L140,78.4l0.13-0.13v-0.09l0.31-0.4l0.53-0.48l0.18-0.09l0.09-0.31l0.53-0.75l1.06-1.19
		l0.18-0.44l0.7-0.97l0.26-0.35l0.57-0.88l0.22-0.53l0.92-1.58l0.26-0.22l0.18-0.4l-0.04-0.09l0.13-0.26l0.22-0.18l0.26-0.18V68.8
		l0.13-0.66l0.26-0.13L147,67.79z M118.84,78.4l0.13,0.04l0.04-0.09l-0.09-0.31l-0.13,0.04L118.84,78.4z M118.97,72.32l0.04,0.04
		l0.09-0.53h-0.04L118.97,72.32z M119.1,74.08l0.09,0.4l0.13-0.18v-0.44l-0.13,0.04L119.1,74.08z M119.45,75.45l0.09,0.35l0.04,0.22
		l0.4-0.18l0.18-0.57l-0.31-0.22l0.13-0.26l-0.04-0.66l-0.22,0.4l-0.09,0.26v0.31l-0.44,0.26l0.26-0.09V75.45z M119.94,64.76
		l0.04,0.04l-0.22,0.18h-0.26v-0.09L119.94,64.76z M119.63,66.91l-0.09,0.53l0.18-0.22L119.63,66.91z M119.72,76.95l-0.04,0.04
		l0.22,0.48l0.18,0.04l0.13-0.04l-0.18-0.44L119.72,76.95z M119.94,76.02h-0.22v0.4L119.94,76.02z M121.12,79.67h0.18V79.5
		l-0.04-0.09l-0.7-1.06l0.13-0.35l-0.18-0.26l-0.22-0.13l-0.57,0.22v0.04l0.26,0.4l-0.13,0.4h0.26l0.13,0.26l-0.04,0.04l-0.18-0.09
		l-0.09,0.04l0.18,0.35h0.35L121.12,79.67z M119.98,73.95l-0.04-0.31l-0.18,0.31l0.04,0.09L119.98,73.95z M120.25,76.46l0.26-0.57
		l-0.22,0.26l-0.09-0.04L120.25,76.46z M120.82,80.42l-0.31-0.44l0.04-0.04L120.82,80.42z M120.64,68.98l0.35-0.31h-0.22
		L120.64,68.98z M121.04,80.77l-0.13-0.13l-0.09-0.22l0.48,0.75L121.04,80.77z M121.12,60.05l0.31-0.35l-0.26,0.62h-0.13
		L121.12,60.05z M121.79,64.1l-0.48,0.18l-0.04,0.18l0.31-0.09l0.09,0.18L121.79,64.1z M121.61,65.02l0.13-0.22l-0.18-0.04
		l-0.18,0.44L121.61,65.02z M121.48,71.97l0.13-0.48h-0.09l-0.09,0.48H121.48z M122,75.19v-0.35h-0.31l0.13,0.04l-0.18,0.53h0.09
		l0.13-0.18l0.09,0.18L122,75.19z M121.87,81.96l-0.18-0.13l0.04-0.09l0.22,0.13L121.87,81.96z M121.83,78.79l0.09-0.04l0.26,0.26
		l-0.35-0.4l-0.09,0.04L121.83,78.79z M122.45,82.49L122,82.14l0.09-0.04L122.45,82.49z M123.11,83.11l-0.62-0.44l0.04-0.04
		l1.98,1.1l-0.09,0.04L123.11,83.11z M122.84,61.9l-0.04,0.22l-0.09,0.35l0.09,0.31l0.13-0.75l0.26,0.13l0.13-0.48h-0.04l-0.18,0.13
		l-0.18-0.09L122.84,61.9z M122.8,79.59l0.18-0.18l0.13,0.04l-0.04,0.18L122.8,79.59z M124.03,80.64h-0.31l-0.13,0.31l-0.31-0.57
		l0.04-0.22l0.09,0.04l0.13,0.35l0.09-0.22L124.03,80.64z M124.34,81.08l-0.09,0.18h-0.35l-0.09-0.35h0.09l0.31,0.13L124.34,81.08z
		 M123.99,64.36l-0.09-0.04l0.13-0.48h0.09L123.99,64.36z M124.12,61.72h-0.04l-0.04,0.22l0.22,0.09L124.12,61.72z M124.69,83.41
		h-0.53v-0.04h0.53V83.41z M126.14,56.88l0.04-0.13l0.31-0.22l0.04,0.04l-0.18,0.31l-0.18,0.09L126.14,56.88z M126.71,55.69
		l0.18,0.13l-0.22,0.09l-0.04-0.13L126.71,55.69z M126.71,84.07v0.04l0.4-0.04H126.71z M127.51,54.15v0.04l-0.09,0.4l-0.35,0.13
		L127.51,54.15z M132.96,64.89l-0.09-0.26l-0.22,0.13l-0.26,0.13l-0.79,0.22l-0.26,0.09l-0.57,0.26l-0.04,0.04l-0.04,0.4l-0.13,0.09
		l-0.22,0.04l-0.35-0.18h-0.26l-0.62,0.22l-0.04,0.09l0.26,0.04l-0.22,0.22l0.18,0.04l-0.13,0.09l-0.62-0.22l-0.04-0.04v-0.26
		l-0.31-0.04l-0.13-0.09l-0.35-0.18l-0.09-0.48l-0.31,0.09l-0.13-0.4l0.04-0.22l0.18,0.09l0.53,0.44l0.75,0.18l0.35,0.13l0.79-0.13
		l0.35-0.04l0.09,0.26l0.66-0.66h0.35l0.35-0.18l0.26-0.18l0.31-0.26l0.13,0.13v-0.04l0.22-0.18h0.04l0.75-0.4v-0.13l-0.13-0.04
		l-0.35,0.13l-0.04-0.04l0.09-0.13l0.53-0.09l0.48-0.18h0.31l-0.66,0.53l-0.26,0.44l-0.09,0.31L132.96,64.89z M128.65,65.55
		l0.66,0.22v-0.09L128.65,65.55z M128.65,65.94l0.22,0.18l0.09-0.09l-0.22-0.18L128.65,65.94z M130.01,66.47l-0.22-0.13l0.09-0.18
		l0.13,0.26V66.47z M132.43,65.2l-0.88,0.44l0.31-0.44H132.43z M132.61,63.88l0.26,0.09v0.09l-0.48,0.09V64.1l0.13-0.04
		L132.61,63.88z M136.22,60.66l0.09-0.09l0.04,0.18l-0.79,0.79h0.04l-0.22,0.13v0.04l0.26-0.09l0.18-0.18l0.22,0.18l-0.35,0.35
		l0.04,0.04l0.18-0.04l0.04,0.31l-0.57,0.44L134.94,63l-0.31,0.13h0.18l-0.92,0.13l0.26-0.26l0.57-0.44l0.18-0.22l-0.22,0.04
		l0.35-0.7l0.13-0.04l0.66-0.57L136.22,60.66z M137.19,59.96l0.31-0.26l0.35-0.13l-0.26-0.13l-0.26,0.26L137.19,59.96z M140,54.24
		l-0.22,0.04l0.09-0.26l0.35,0.13L140,54.24z M140.58,48.65l0.22,0.31l-0.13,0.35v-0.09l-0.13-0.31L140.58,48.65z M141.41,55.21
		l-0.13,0.13l-0.04,0.31l-0.57,0.22l-0.13-0.09l0.09-0.04l0.44-0.22l0.18-0.26l0.13-0.13L141.41,55.21z M140.88,56.04l-0.04,0.13
		l-0.31,0.44L140.88,56.04z M141.5,50.94l-0.09,0.09l-0.04,0.22l0.09,0.04l0.13-0.22L141.5,50.94z M141.59,54.33l0.31-0.66
		l0.09-0.18h0.26l-0.35,0.35l0.13,0.18l-0.09,0.4l-0.18,0.13l-0.22,0.22l-0.04-0.04L141.59,54.33z M142.56,52.39l0.04,0.09
		l-0.48,0.44L142.56,52.39z"/>
	<path d="M156.85,70.52l-0.04,0.18v0.22l-0.04,0.18l-0.13,0.18l-0.18,0.31l-0.31,0.66l-0.04,0.13l-0.04,0.53l-0.18,0.35l-0.13,0.22
		l-0.53,1.45l-0.22,0.48l-0.62,0.84l-0.04,0.04l-1.23,1.19l-1.36,0.66l-1.1,0.31l-1.63-0.4l-1.98-1.94l-0.53-1.41l-0.57-1.36
		l-0.13,0.26l-0.04,0.04l-0.48,0.84l-0.4,0.4l-1.14,1.1l-0.18,0.18l-0.66,0.53l-0.18,0.18l-0.53,0.57l-0.22,0.26l-0.13,0.18
		L141.76,78l-0.26,0.13l-0.13,0.04l-0.7,0.26l0.04-0.09l2.33-2.42l1.76-2.77l1.1-1.63l0.04-0.18l-0.13-1.1l-0.18-0.35h-0.09
		l0.13-0.84l-0.13-0.26l-0.04-1.32l0.18-1.67l0.13-1.76l0.04-0.35l0.4-1.72l0.18-1.06l0.31-1.5l0.26-1.01l0.04-0.62l0.13-0.26v-0.31
		l0.26-0.44v-0.26l0.22-0.7l0.26-0.84l0.09-0.53l0.57-1.54l0.4-0.92l0.04-0.31l0.18-0.48l-0.04-0.35v-0.13l0.18,0.13l0.22-0.53
		l0.22-0.57l0.26-0.53v-0.26l0.31-0.75l0.22-0.26l-0.04-0.04l-0.13-0.09l0.13-0.09l0.22-0.18l-0.09-0.18l0.13-0.31l0.26-0.18
		l0.09-0.09l0.48-1.23l0.18-0.13l0.84-1.63l0.18-0.35l-0.31,0.13l0.09-0.31l-0.4,0.26l0.35-0.7l-0.62,0.4l0.66-0.79l0.57-1.01
		l0.31-0.48l0.97-1.32l0.57-0.31l0.13-0.04h0.57l0.18,0.04l0.31-0.09l0.31-0.18l0.92-0.31l0.48,0.04l0.26,0.26l0.04,0.22l0.18,0.84
		v0.31l-0.13,0.57l-0.04,0.04v0.18L158,41.83l-0.04-0.04l0.04-0.35h-0.04l-0.18,0.26l-0.09-0.13l-0.35,2.51l0.26-0.09l-0.13,0.13
		l-0.31,0.4v0.04L157.12,45l-0.09,0.48l-0.31,1.01v0.18v0.22l-0.31,0.66v0.13l-0.22,0.4l-0.35,0.31l0.35-1.01l0.44-1.36l0.35-1.72
		l0.18-0.84l0.13-1.58l-0.09-1.14l-0.53-0.31l-0.35,0.53l-0.62,0.48l-0.13,0.26l-0.09,0.18l-0.92,0.97l-0.09,0.31l-0.35,0.53
		l-0.31,0.57l-0.48,0.88l-0.31,0.35l-0.26,0.44l-0.13,0.31l0.09-0.04l-0.66,1.67l0.09,0.26l-0.31,0.31l-0.04,0.13l-0.48,1.32
		l-0.22,0.48l-0.4,1.01l-0.22,0.31v0.09l-0.18,0.84l0.18-0.04l-0.04,0.09l-0.57,0.97l-0.13,0.44l-0.04,0.22v0.22l-0.18,0.4
		l-0.09,0.31v0.22l-0.26,0.97l-0.04,0.53l0.09-0.22l0.09,0.04l0.35-0.35l-0.26,0.66l-0.04-0.18l-0.4,0.26l-0.22,0.75l-0.13,0.31
		v0.22l-0.09,0.75l-0.18,0.75l-0.18,0.88l-0.22,1.19v0.7L147.88,63v0.31l-0.13,0.79v0.75l0.04,0.18h0.04l0.18-1.01l0.09,0.53
		l-0.09,0.57l-0.22,0.26l-0.22,0.44l0.04,0.35h0.09l0.09-0.57l0.13,1.19l-0.22,0.53l0.13-0.88h-0.09l-0.22,1.01l-0.09-0.13
		l-0.13,0.31h0.04v0.35l0.18,0.26l-0.13,0.22l0.31,0.04v-0.97l0.13-0.18l0.13,0.13l-0.04,1.1l-0.26,0.22l0.04,0.18l0.18-0.04
		l0.09,0.04l0.48-0.88l0.4-0.84l0.31-0.75l0.13-0.35l0.31-0.88l0.26-0.53l0.09-0.09l0.09-0.35l0.62-1.45l0.13-0.18l0.04,0.26
		l-0.04,0.18h0.09l0.35-0.4l-0.09-0.09l-0.22,0.09l0.04-0.31l0.35-0.13l0.26-0.7l-0.04-0.18l-0.44,0.88l-0.22-0.09l0.53-1.28
		l0.09-0.04l0.13-0.26l-0.09,0.04l-0.04-0.04l0.18-0.22l0.13-0.13l0.04-0.35l0.7-1.72l0.35-1.01l0.35-0.79l0.18,0.4h0.09l0.04-0.35
		l0.13-0.22l0.13-0.18l0.26-0.88l0.09-0.22l-0.09-0.35l-0.22,0.13l-0.04-0.44l0.26-0.75l0.35-0.88l0.18-0.31l0.13-0.18v-0.31
		l0.09-0.4l0.13-0.35l0.48,0.35l-0.18-0.31l0.18-0.22l-0.44-0.04l0.31-0.22l0.13,0.22l0.18-0.18l0.09-0.26l0.04,0.31l-0.18,0.75
		l0.13-0.18l0.18-0.04v0.13l-0.09,0.13l-0.13,0.22l-0.04,0.13l-0.26,0.57l-0.04,0.13l-0.13,0.48l-0.13,0.13l0.09,0.35l-0.26,0.84
		l-0.09,0.31l-0.09,0.13l-0.04,0.31l-0.22,0.09v0.31l-0.04,0.35l-0.35,0.79l-0.22,0.44l-0.04,0.22l-0.31,0.26h-0.09l0.09,0.53
		l-0.35,0.88l-0.31,0.84l-0.13,0.26l-0.4,0.75l-0.09-0.09l-0.18,0.97l-0.13,0.44l-0.18,0.31l-0.26,0.66l-0.09,0.18l-0.35,0.7
		l-0.44,0.79l-0.04-0.13l-0.04-0.04l-0.35,0.18l0.35,0.13l-0.04,0.18l-0.13-0.04l-0.22-0.04l-0.13,0.22v0.13l0.13,0.26l0.09-0.18
		h0.04v0.13l-0.13,0.4l-0.4,1.06l-0.88,1.67l-0.26,0.18l-0.04,0.04l-0.04,0.44l-0.13,0.35l-0.13,0.35l0.18,0.4l-0.26-0.04l0.4,2.77
		l0.09-0.04l-0.04-0.31l0.13,0.35l-0.09,0.22l0.48,1.32l0.22,0.26l0.04,0.13l0.09,0.31l0.13,0.09l0.09-0.18l0.04,0.04l0.79,1.1
		l0.7,0.48l0.44,0.09l0.7-0.26l1.19-1.23l1.89-2.68l1.32-2.95l0.04-0.13L156.85,70.52z M147.66,72.37l0.09-0.04v-0.04l-0.04-0.7
		h-0.09l-0.09,0.09l0.04,0.4L147.66,72.37z M148.19,63.7l-0.22,0.22v-0.57l0.13-0.13l0.13,0.09L148.19,63.7z M148.01,73.86
		l0.22,0.04l0.09-0.04l-0.22-0.35L148.01,73.86z M148.49,60.71l-0.04,0.97h-0.09l0.04-0.97H148.49z M149.81,66.34h-0.22l-0.09,0.26
		h0.04L149.81,66.34z M149.99,55.03l-0.26,0.26l0.18-0.88l0.09-0.13v-0.31l0.53-0.66l-0.31,0.92v0.09L149.99,55.03z M150.69,52.39
		l0.22-0.35l0.18-0.35l0.09,0.09l-0.26,0.84l-0.04,0.09L150.69,52.39z M151.97,43.94v0.35l-0.44,1.14l0.09,0.13l-0.18,0.22
		l-0.26,0.35l0.13-0.26h-0.09l-0.44,0.44l-0.04-0.04L151.97,43.94z M151.88,60.35l-0.31,0.79l0.04,0.04l0.31-0.22l0.04-0.09
		L151.88,60.35z M152.15,44.25l0.22-0.57h0.09l-0.22,0.66h-0.09V44.25z M153.51,56.13h-0.04l-0.04-0.4l0.13-0.04L153.51,56.13z
		 M153.69,54.85h0.04l-0.04,0.62l-0.18-0.13L153.69,54.85z M154.26,53.84l-0.18,0.7l0.18-0.09l0.04-0.04l0.31-0.84l0.09-0.7h-0.09
		l-0.18,0.4L154.26,53.84z M155.05,51.73l-0.13,0.35l-0.04,0.26h0.22l0.22-0.75l-0.04-0.04L155.05,51.73z M156.06,48.56v0.31
		l-0.62,1.58l-0.13,0.22l-0.13-0.18l0.57-1.72l0.26-0.22H156.06z M155.93,50.85h-0.04l0.13-0.4l0.09-0.35l-0.31-0.31l0.26-0.09
		l-0.13-0.13h0.09l0.26,0.4l-0.04,0.4l-0.04,0.22L155.93,50.85z M156.24,49.09l0.09-0.35l0.09,0.04l-0.09,0.31H156.24z
		 M156.55,48.56h-0.09l0.04-0.44l0.09-0.04l0.22,0.13l-0.18,0.13l0.04-0.04L156.55,48.56z M156.85,47.02l0.31-1.06l0.09,0.92
		l-0.44,0.79h0.09l-0.31,0.4v-0.26l0.18-0.4l0.09-0.35V47.02z M157.6,44.12h0.13l-0.18,0.75h-0.09L157.6,44.12z M157.82,41.12
		l0.04-0.09h-0.26l0.04,0.09H157.82z M157.87,42.93h-0.09l-0.09-0.26h0.18V42.93z M157.91,42.09h0.04l-0.04,0.4h-0.09L157.91,42.09z
		"/>
	<path d="M166.93,76.2l0.75-1.14l0.7-0.26l-0.44,0.92l-0.4,0.88l-0.48,0.92l-0.7,1.1l-0.57,0.75l-0.4,0.62l-0.4,0.31l-1.63,0.35
		l-0.22,0.04l-0.88-0.48l0.09-0.62l-0.09-0.62l0.04-0.7l-0.09-0.97v-0.09l0.04-0.22l-0.04-0.53l0.04-0.88l-0.22-0.22l0.22-0.35
		l0.09-0.22v-0.26l0.09-0.35v-0.48l-0.09-0.4l0.04-0.26l0.13-0.26l0.13-1.54l0.09-0.92l0.4-1.85l0.13-0.66l-0.04-0.22l-0.09,0.13
		l-0.13,0.09l-1.1,2.29l-0.75,1.76l-0.57,1.32l-0.53,1.14l-0.57,1.06l-0.84,1.14l-0.75,1.01l-0.84,0.84l-0.18,0.18l-0.35,0.09
		l-0.53-0.31l-0.35-0.35l-0.62-0.22l-0.92-0.31l-0.18-0.66l0.31-0.79l-0.13-0.26l-0.04-0.18l0.18-0.84l0.04-0.13l0.31-0.79
		l-0.09-0.31v-0.09l0.4-1.72l0.09-0.13l0.22-0.4l0.09-0.79l0.13-0.4l-0.04-0.31l0.09-0.26l0.22-0.26l-0.04-0.48l0.04-0.48l0.22-0.7
		l1.1-2.24l0.57-0.88l0.31-0.53l0.13-0.26l0.35-0.53l0.84-0.97l0.22-0.31l0.04-0.04l1.14-1.06l1.28-0.97l2.11-1.01l1.01-0.13
		l1.14,0.22l1.28,1.5l-0.18,0.13l-0.35-0.18l-1.23-0.53l-0.7,0.18l-1.32,0.97l-0.57,0.48l-1.63,1.76l-0.44,0.44l-0.31,0.48
		l-0.7,1.06l-0.53,0.88l-0.48,1.1l-0.22,0.53l-0.48,1.41l-0.18,0.84v0.22L158,70.48l-0.09,0.48l-0.22,0.53l-0.04,0.18v0.4l0.04,0.35
		l-0.09,0.62l-0.18,0.31l-0.04,0.09l0.04,0.44l-0.04,0.22v0.31v0.88l-0.09,0.57l0.09,0.04l0.57-0.62l1.76-2.86l1.89-3.56l2.9-4.93
		l0.48-0.09l0.09-0.04h0.09l0.4-0.31l0.13-0.04l0.62-0.09l0.75-0.22l0.13-0.04l0.53,0.26v0.53l-1.14,2.11l-0.22,0.66l-0.31,1.1
		l-0.26,0.92l-0.22,0.88l-0.13,0.66l-0.04,0.26l-0.22,0.75l-0.18,0.57l-0.04,0.48l-0.04,0.44l-0.09,0.18v0.35v1.06l-0.09,1.01v0.62
		l-0.09,0.31l0.09,0.92l0.04,0.04v1.28l0.09,0.26l0.35-0.22L166.93,76.2z M154.96,72.15l0.04,0.13l0.26-0.13l-0.18-0.13
		L154.96,72.15z M155.58,69.64v0.35h0.09v-0.31L155.58,69.64z M155.88,68.45l0.09,0.04l0.22-0.31l-0.04-0.18l-0.18,0.09
		L155.88,68.45z M156.06,72.02l0.26-1.72l0.04-0.48h-0.04l-0.13,0.22l-0.18,0.84V71l-0.09,1.01v0.22L156.06,72.02z M156.41,66.6
		l0.04,0.26l0.13-0.04l-0.04-0.26L156.41,66.6z M163.1,60l-0.53,0.44l-0.04,0.09l0.04,0.18l0.22-0.13l0.18,0.04l0.62-0.44l0.09-0.09
		l0.13-0.09l0.22-0.31l-0.04-0.35l-0.13,0.35l-0.22,0.09l-0.18-0.04L163.1,60z M163.63,77.52l0.04,0.26h0.13v-2.07h-0.09l-0.13,0.57
		l0.09,1.06L163.63,77.52z M163.63,74.92v0.13l0.04,0.18h0.09l0.04-0.18l0.04-0.62l-0.04-0.4h-0.04l-0.04,0.09L163.63,74.92z"/>
	<path d="M179.82,76.68l1.01-1.1l0.44-0.48l0.31-0.31l-0.13,0.4l-0.18,0.31l-0.88,1.23l-0.53,0.66l-0.62,0.92l-0.48,0.7l-0.53,0.53
		l-0.04,0.04l-0.13,0.35l-0.18,0.13l-0.44,0.09l-0.13,0.09v0.09l-0.18,0.35l-0.04-0.18l-0.62,0.4l-0.31,0.09l-0.22,0.13l-0.26,0.04
		l0.44-0.44l-0.62,0.09l-0.92-0.22l0.4-0.26l0.13-0.22l-0.22-0.35h0.22l0.04-0.26l-0.09-0.7l0.09-0.26v-0.57l-0.13-0.44v-0.09
		l0.18-0.53l0.13-1.85l0.57-1.72l-0.4-0.18l-0.18,0.04l-1.23,1.54l-0.88,1.14l-0.35,0.53l-0.26,0.31l-0.97,0.62l-1.1,0.26l-0.4,0.04
		l-0.57-0.09L169,77.25l-0.57-0.53l-0.22-0.53l0.04-0.04l0.18,0.04l0.13-0.79l0.22-0.92l0.26-0.7l0.09-0.62l0.22-0.75v-0.09
		l0.13-0.62l0.09-0.31l0.4-1.45l0.31-1.1l-0.04-0.18v-0.53l0.35-1.45v-0.26l-0.13,0.09l0.04-1.58l0.22-0.4l-0.04-0.04l0.31-0.26
		l1.32-0.13l0.13,0.04l0.44,0.13l0.44-0.04l0.48,0.4l-0.57,1.63l-0.04,0.09l-0.31,1.32l-0.09,0.4h-0.04l-0.22,1.19l-0.04,0.53
		L172.17,71l-0.18,0.7l-0.48,1.76l-0.18,0.79l-0.09,0.44l-0.26,0.97v0.31l0.44-0.26l1.5-1.8l1.5-2.07l0.26-0.22l0.26-0.26l0.7-1.32
		l0.66-1.1l0.31-0.53l0.22-0.62l0.18-0.31l0.22-0.4l0.4-1.14v-0.35l0.04-0.18l0.26-0.31l0.13-0.13l0.22-0.84l0.04-0.26l-0.18-0.35
		l0.62-1.76l0.92-0.4l0.26,0.04h0.44l0.48,0.09l0.22,0.4l-0.22,1.28l-0.26,1.45l-0.13,1.1l-0.18,0.88L180,67.35l-0.18,0.35
		l-0.09,0.09l-0.09,0.57l-0.04,0.13l-0.04,0.26l-0.13,0.57v0.04l-0.13,0.4l-0.09,0.57l-0.26,0.44l-0.09,0.7l-0.4,1.32l-0.04,0.18
		l-0.04,0.22l-0.13,0.44v0.62l-0.18,0.62l-0.18,0.88l-0.22,0.7l-0.13,1.06l-0.13,0.7l0.04,0.31l0.09,0.35l0.09-0.09L179.82,76.68z
		 M170.93,69.38l0.35-1.63l0.04-0.53h-0.09l-0.09,0.22l-0.22,0.79l-0.04,0.18l-0.09,1.01l-0.04,0.22l0.18-0.22V69.38z M176.74,77.56
		l0.04,0.26h0.13l0.18-2.07h-0.09l-0.18,0.53v0.44l-0.04,0.22v0.44L176.74,77.56z M177.31,73.25l-0.13,0.18l0.09,0.13l0.13-0.13
		L177.31,73.25z M177.4,74.39l0.09-0.4h-0.13l-0.09,0.35L177.4,74.39z M177.75,72.41l0.04,0.18l0.35-0.48l-0.22-0.04L177.75,72.41z
		 M178.15,71.05v0.09l0.35-0.31l-0.18-0.26L178.15,71.05z"/>
	<path d="M204.11,44.91l0.04,0.22l0.31,0.13l-0.31,0.57l-0.26,0.26l-0.31,0.88l0.09,0.13l-0.4,0.31l0.22,0.26l-0.04,0.04h-0.09
		l-0.13,0.18v0.18l-0.35,0.44l-0.53,0.75l-0.53,1.1l-0.18,0.35l-0.4,0.88l-0.09,0.13l-0.31,0.7l-0.09,0.18l-0.31,0.35l-0.13,0.13
		l0.09,0.04l-0.31,0.66l-0.18,0.35l-0.04,0.35l-0.04,0.18l-0.22,0.48l-0.04,0.35l-0.31,0.18l-0.26,0.84l-0.48,1.58l-0.35,1.41
		l-0.31,1.36l-0.26,1.19l-0.31,1.32l-0.35,2.2l-0.13,1.36l-0.26,1.67l0.04,0.18l-0.13,0.4l-0.09,0.88v0.09l-0.13,1.23l-0.13,1.45
		l-0.04,1.76l-0.09,0.7v0.26l0.04,0.66l0.09,0.84l0.18,0.44l0.04,0.75l-0.04,0.09l0.26,0.57l0.13,0.66l0.13,1.01l0.04,0.31
		l0.48,0.31l0.48-0.18l0.22,0.04l0.18,0.09l-0.13,0.22l-0.04,0.09l-0.75,0.22l-0.13,0.04l-0.75,0.48l-0.4,0.22l-0.13,0.13l0.09,0.04
		l0.53-0.18l0.09-0.18l0.18,0.04l-0.53,0.4l-0.26-0.04l-0.48,0.18h-0.35l-0.31-0.22l-0.4-0.35l-0.22-0.53l-0.13-0.26l-0.04-0.09
		l-0.35-0.79l0.13-0.53l0.09-0.13l-0.13-1.06l0.04-0.31l-0.13-0.13v-0.35l0.13-0.44l0.09-1.32l-0.09-0.57v-0.04l0.13-0.57
		l-0.09-0.13l-0.09-0.04l0.04-0.18l0.09-0.22h-0.04l0.13-0.09l-0.13-0.09l0.04-0.26l0.09-0.13l0.22-0.48l0.18-0.75l0.18-0.35
		l-0.13,0.62v0.26l-0.18,0.13l0.09,0.22l-0.09,0.18l0.13,0.35l-0.13,0.35l0.13,1.28l-0.04,0.53l0.13,0.4l0.31-0.35l0.04-1.85
		l0.04,0.09v1.06l0.09,0.09l0.09-0.13l0.04-0.84V74.7L195,74.35l-0.18-0.26L195,71.4l0.09-0.44l0.13,0.09l-0.09,0.75l0.22-0.35
		v-0.26l0.13-0.57v-0.48l0.04-0.26l0.13-0.57l0.09-0.66v-0.35l0.04-0.53l-0.04-0.18l0.22-1.54l0.18-0.79l0.13-0.35v-0.22l0.04-0.18
		l0.13-1.32v-0.09v-0.4l-0.26,0.66l-0.22-0.13l0.13-0.79l0.13-0.62l-0.13-0.13l-0.09,0.04l-0.18,0.7L195.79,63l-0.13,0.44
		l-0.18,0.79l-0.04,0.48h-0.04l-0.13-0.13l-0.22,0.75l-0.13,0.75l-0.13-0.62l-0.04-0.44l-0.04-0.44l0.04-0.04l0.13,0.13l0.13-0.44
		h-0.31l0.18-0.75l0.04-0.09v-0.26l-0.09-0.04l-0.22,0.18l0.13,0.18l-0.04,0.13l-0.04-0.04l-0.31,0.18l0.09,0.18l-0.09,0.18
		l-0.48,0.79l-0.35,0.53l-0.09,0.44l-0.13,0.13l-0.22,0.22l-0.18,0.35l-0.13,0.53l-0.4,0.4l0.13,0.26l-0.09,0.09l-0.22,0.31
		l-0.26,0.44l-0.04,0.09l-0.18,0.44l-0.26,0.44l-0.18,0.26l-0.18,0.4l-0.44,0.88l-0.35,0.7l-0.22,0.18l-0.04,0.09l-0.4,0.7
		l-0.31,0.44l-0.48,0.88l-1.1,1.45l-0.57,0.53l-0.26,0.31l-1.58,1.23l-0.84,0.4h-0.31l-0.13-0.04l-0.4,0.04l-0.92,0.09l-1.14-0.88
		l0.04-2.07l0.09-0.62l0.13,0.26l0.31-1.23h0.09v0.26l0.09,0.09l0.09-0.13l0.04-0.26l-0.22-0.18l0.04-0.26l0.13,0.09l0.13-0.26
		l-0.04-0.35l-0.04-0.4l0.48-1.85l0.4-1.1l0.13-0.18l0.4-0.26l-0.18-0.09l-0.04-0.35l0.35-0.66l0.09-0.57l-0.31,0.18h-0.04
		l0.09-0.18l0.26-0.57l0.84-1.45l0.22-0.13l0.18-0.18l-0.13-0.09l0.75-0.97l0.4-0.4l0.35-0.53l-0.09-0.18l0.13,0.04l0.09-0.09
		l0.18-0.35l0.4-0.4l0.97-0.92l0.44-0.31l1.63-0.97l1.32-0.4l1.28-0.4l0.48-0.09l0.84,0.22l0.4,0.09l0.22,0.35L195,60l0.22,0.35
		l0.4-0.35l0.04-0.22l-0.18-0.35l0.31-1.58l0.26-0.62l0.13-0.48l0.04-0.35l0.09-0.26l0.09-0.18l0.22-0.57l0.09-0.35l0.09-0.13v-0.04
		l0.18-0.66l0.31-0.44l0.09-0.7l0.09-0.22l0.35-1.06v-0.22V51.2l0.97-2.02v-0.13v-0.13l0.22-0.35l-0.04-0.09v-0.35l0.62-0.04
		l0.13-0.04l0.31-0.57l0.09-0.09l0.53-0.84l-0.04-0.13l-0.09-0.22l0.09-0.13h0.66l0.18-0.26l0.22-0.13l0.26-0.09l0.31,0.04
		l0.35-0.22l0.35-0.18h0.18l-0.09-0.13l1.19-0.48L204.11,44.91z M182.42,70.92l0.13,0.13l-0.18,0.22L182.42,70.92z M182.64,73.73
		l0.04,0.35l0.18-0.44v-0.35L182.64,73.73z M182.81,69.46l0.09,0.04l-0.18,0.57h-0.04L182.81,69.46z M183.34,68.28l-0.04,0.09
		l-0.22,0.57l-0.09-0.04l0.31-0.66L183.34,68.28z M183.03,71.58l0.04,0.09l0.26-0.13l-0.18-0.09L183.03,71.58z M183.21,71.09
		l0.04,0.22l0.35-1.01l-0.04-0.09l-0.09,0.09l-0.13,0.26L183.21,71.09z M183.56,69.95h0.18l0.22-0.7v-0.13h-0.04L183.56,69.95z
		 M194.47,62.03l0.09-0.53l-0.18-0.75l-0.75-0.84l-0.84,0.18l-2.02,1.32l-0.57,0.57l-1.54,1.8l-0.75,1.06l-1.14,1.98l-0.53,1.14
		l-0.31,0.53l-0.26,0.7l-0.18,0.44l-0.04,0.09l-0.4,1.54l-0.13,0.79l-0.26,1.14l-0.04,0.75l-0.22,0.13l0.13,0.35l-0.04,0.09
		l-0.04,0.88l0.04,0.44l0.22,0.75l0.35-0.18l0.88-0.79l0.66-0.79l1.14-1.5l0.92-1.32l1.23-1.8l0.62-1.1l0.97-1.63l0.57-1.06
		L194.47,62.03z M186.6,64.27l-0.09-0.04l-0.13,0.13l0.09,0.04L186.6,64.27z M194.03,72.15l0.09-0.48h0.13l-0.13,0.48H194.03z
		 M194.87,79.67l0.13,0.09l-0.04-0.97l-0.18-1.28v-0.4l-0.09-0.18l-0.26,0.04l0.09,0.18h0.04l-0.22,0.31l0.26,0.26l-0.35,0.04
		l0.22,0.09l-0.13,0.18l0.04,0.13l0.31,0.22l-0.04,0.31v0.26l0.09,0.48L194.87,79.67z M194.87,67.7l-0.04,0.18l-0.22,0.48
		l-0.09,0.13l-0.09-0.13l0.04-0.22l0.18-0.31l-0.04-0.35v-0.4l0.04-0.04l0.13,0.13l0.26-0.09l-0.26,0.22L194.87,67.7z M194.47,71.18
		v-0.26l0.09-0.04V71l0.04-0.04l0.04-0.09l-0.09,0.31H194.47z M194.83,66.82l-0.13,0.13v-0.48l0.22-0.4L194.83,66.82z M195.09,66.96
		h-0.18l0.09-0.31L195.09,66.96z M195.05,76.02l-0.09-0.18h-0.04l0.13,1.36h0.09v-0.22l-0.04-0.26L195.05,76.02z M195.31,65.15
		l0.09-0.31h0.04l-0.09,0.7l0.18-0.04v0.04l-0.22,0.31l-0.18,0.62l-0.04,0.09l-0.04-0.09l0.04-0.53L195.31,65.15z M195.13,70.83
		h-0.09l0.09-0.53l0.13-0.09l0.04,0.04v0.13L195.13,70.83z M195.27,64.01v0.44l0.09-0.26l-0.04-0.88l-0.13,0.31L195.27,64.01z
		 M195.31,69.51l-0.13,0.48l0.18-1.14h0.09L195.31,69.51z M195.62,67.31l-0.18,1.06v-0.57L195.62,67.31z M195.66,74l0.09-0.18
		l0.18-1.89v-0.04l0.13-1.14V70.3l0.18-0.84v-0.57l-0.04-0.18l-0.13,0.04l-0.04,0.26l0.04,0.13l-0.09,0.66l-0.13,0.31l-0.04,0.22
		l-0.13,1.32l-0.13,1.19l-0.09,0.53v0.79L195.66,74z M195.66,65.28l0.26-1.45l0.13-0.26l0.13-0.22l-0.26,1.89l-0.09,0.79l-0.13,0.84
		l-0.13,0.18l-0.04-0.13l0.04-0.48l0.04-0.53L195.66,65.28z M195.57,59.39h0.09l0.09-0.22l-0.04-0.04L195.57,59.39z M196.23,61.59
		l0.04-0.09l0.09-0.31v-0.26h-0.09l-0.18,0.62L196.23,61.59z M196.15,67.48l0.04-0.13l0.13-0.04v-0.04l-0.13-0.04l-0.09,0.09v0.18
		H196.15z M197.29,56.7l-0.31,1.1l0.35-0.7L197.29,56.7z M199.23,56.44l-0.04,0.66h-0.04l-0.04-0.31l0.09-0.35H199.23z
		 M199.89,47.11l-0.04,0.31l-0.31,0.04l-0.04-0.35H199.89z"/>
	<path d="M203.01,78.4l-0.97,0.35l-0.13-0.13l-0.31,0.09l-0.53-0.13l-0.79-0.4l-0.66-0.7l-0.09-0.4l-0.13-0.48l-0.09-0.4l0.13-0.4
		l0.13,0.62l0.18-0.04l0.09-0.57l0.26-0.88l0.4,0.88l0.31-0.09l0.04-0.09l-0.31-0.97l0.04-0.04l0.18,0.4h0.09v-0.4l-0.04-0.26
		l0.13-0.4l-0.13-0.22l-0.48-0.13l0.04-0.09h0.44l0.35-0.35l-0.31-0.04l0.35-0.26l-0.35,0.13l-0.04-0.09l0.4-0.31l-0.31-0.09
		l0.31-0.22l0.09-0.13l0.13-0.22l-0.04-0.4l-0.04-0.62l0.18-0.18l0.04-0.26l-0.22-0.04l0.13-0.4l0.4,0.4l0.09-0.18l-0.31-0.31
		l0.31-0.35l-0.04-0.26l0.18-0.13l-0.13-0.26l-0.26-0.22l0.7-0.31l-0.57,0.13l0.04-0.48l0.22-1.67l0.22-0.57l-0.13-0.31l0.04-0.35
		l0.13-0.26l0.13-0.13l-0.22-0.09l0.09-0.62l0.4-1.54l0.13-0.44v-0.09l0.57-0.53l0.44-0.04l0.48-0.09l0.35,0.18l0.13,0.09l0.44,0.4
		l0.04,0.4l-0.31,0.7l-0.09,0.31l-0.13,0.4l-0.31,1.28v0.13l-0.18,0.31l-0.04,0.53l-0.13,0.62l-0.04,0.22l-0.26,0.97l-0.22,1.23
		v0.18l-0.57,1.06l-0.4,0.09l0.4,0.18l-0.31,1.19h-0.04l-0.09,0.53l-0.44,1.1l-0.04,0.22l-0.57-0.04l-0.22,0.13l-0.09,0.57l0.04,0.4
		l-0.13,0.48l-0.04,0.18l0.22,0.13l0.09-0.18l-0.04-0.35l0.22-0.22h0.09l-0.13,0.62v0.44l0.18,0.18l0.31-0.22l0.04,0.09v0.88
		l0.13,0.57l0.26,0.04l0.48-0.22l2.29-2.42l2.73-3.26l2.9-3.17l-0.75,1.23l-0.04,0.09l-0.79,1.32l-0.57,1.06l-0.13,0.18l-0.44,0.62
		l-0.35,0.35l-0.48,0.88l-0.44,0.75l-0.31,0.35l-0.48,0.75l-0.13,0.18l-0.13,0.4l-0.13,0.18l-0.35,0.26h-0.09l-0.48,0.75l-0.4,0.22
		l0.09,0.09l-0.44-0.04l-0.57,0.53L203.01,78.4z M200.37,74.39l-0.09,0.04l-0.09-0.04v-0.31L200.37,74.39z M202.13,74.31l-0.57,0.35
		l-0.09-0.04l0.04-0.7h0.18l0.04,0.48L202.13,74.31z M201.64,73.42l0.18,0.04l0.26-0.4l-0.04-0.18l-0.31,0.22L201.64,73.42z
		 M201.78,72.81l0.18,0.04l0.13-0.26l0.18-0.09l0.13-0.79l0.09-0.18l-0.4-0.48l0.22,0.31l-0.13,0.22l-0.26,0.48l-0.13,0.66V72.81z
		 M202.04,74.57L202,75.23l-0.22-0.4L202.04,74.57z M202,70.78l0.35,0.04l0.13-0.4l-0.09-0.04L202,70.78z M206.09,54.81l-0.53,0.35
		l-0.79-0.66l-0.13-1.1l0.09-1.06l0.48-0.57l0.18,0.22l1.06-0.4l0.84-0.22l0.4,0.04l0.13-0.04l0.35-0.09l0.18,0.53l-0.13,0.35
		l-0.79,0.48l-0.22,0.22l-0.35,0.62l-0.22,0.31l-0.4,0.79L206.09,54.81z"/>
	<path d="M221.05,76.2l0.75-1.14l0.7-0.26l-0.44,0.92l-0.4,0.88l-0.48,0.92l-0.7,1.1l-0.57,0.75l-0.4,0.62l-0.4,0.31l-1.63,0.35
		l-0.22,0.04l-0.88-0.48l0.09-0.62l-0.09-0.62l0.04-0.7l-0.09-0.97v-0.09l0.04-0.22l-0.04-0.53l0.04-0.88l-0.22-0.22l0.22-0.35
		l0.09-0.22v-0.26l0.09-0.35v-0.48l-0.09-0.4l0.04-0.26l0.13-0.26l0.13-1.54l0.09-0.92l0.4-1.85l0.13-0.66l-0.04-0.22l-0.09,0.13
		l-0.13,0.09l-1.1,2.29l-0.75,1.76l-0.57,1.32l-0.53,1.14l-0.57,1.06l-0.84,1.14l-0.75,1.01l-0.84,0.84l-0.18,0.18l-0.35,0.09
		l-0.53-0.31l-0.35-0.35l-0.62-0.22l-0.92-0.31l-0.18-0.66l0.31-0.79l-0.13-0.26l-0.04-0.18l0.18-0.84l0.04-0.13l0.31-0.79
		l-0.09-0.31v-0.09l0.4-1.72l0.09-0.13l0.22-0.4l0.09-0.79l0.13-0.4l-0.04-0.31l0.09-0.26l0.22-0.26l-0.04-0.48l0.04-0.48l0.22-0.7
		l1.1-2.24l0.57-0.88l0.31-0.53l0.13-0.26l0.35-0.53l0.84-0.97l0.22-0.31l0.04-0.04l1.14-1.06l1.28-0.97l2.11-1.01l1.01-0.13
		l1.14,0.22l1.28,1.5l-0.18,0.13l-0.35-0.18l-1.23-0.53l-0.7,0.18l-1.32,0.97l-0.57,0.48l-1.63,1.76l-0.44,0.44l-0.31,0.48
		l-0.7,1.06l-0.53,0.88l-0.48,1.1l-0.22,0.53l-0.48,1.41l-0.18,0.84v0.22l-0.13,0.48l-0.09,0.48l-0.22,0.53l-0.04,0.18v0.4
		l0.04,0.35l-0.09,0.62l-0.18,0.31l-0.04,0.09l0.04,0.44l-0.04,0.22v0.31v0.88l-0.09,0.57l0.09,0.04l0.57-0.62l1.76-2.86l1.89-3.56
		l2.9-4.93l0.48-0.09l0.09-0.04h0.09l0.4-0.31l0.13-0.04l0.62-0.09l0.75-0.22l0.13-0.04l0.53,0.26v0.53l-1.14,2.11l-0.22,0.66
		l-0.31,1.1l-0.26,0.92l-0.22,0.88l-0.13,0.66l-0.04,0.26l-0.22,0.75l-0.18,0.57l-0.04,0.48l-0.04,0.44l-0.09,0.18v0.35v1.06
		l-0.09,1.01v0.62l-0.09,0.31l0.09,0.92l0.04,0.04v1.28l0.09,0.26l0.35-0.22L221.05,76.2z M209.08,72.15l0.04,0.13l0.26-0.13
		l-0.18-0.13L209.08,72.15z M209.7,69.64v0.35h0.09v-0.31L209.7,69.64z M210,68.45l0.09,0.04l0.22-0.31l-0.04-0.18l-0.18,0.09
		L210,68.45z M210.18,72.02l0.26-1.72l0.04-0.48h-0.04l-0.13,0.22l-0.18,0.84V71l-0.09,1.01v0.22L210.18,72.02z M210.53,66.6
		l0.04,0.26l0.13-0.04l-0.04-0.26L210.53,66.6z M217.22,60l-0.53,0.44l-0.04,0.09l0.04,0.18l0.22-0.13l0.18,0.04l0.62-0.44
		l0.09-0.09l0.13-0.09l0.22-0.31l-0.04-0.35l-0.13,0.35l-0.22,0.09l-0.18-0.04L217.22,60z M217.75,77.52l0.04,0.26h0.13v-2.07h-0.09
		l-0.13,0.57l0.09,1.06L217.75,77.52z M217.75,74.92v0.13l0.04,0.18h0.09l0.04-0.18l0.04-0.62l-0.04-0.4h-0.04l-0.04,0.09
		L217.75,74.92z"/>
	<path d="M254.67,44.51l-0.13,1.67l-0.04,1.14l-0.13,0.44l-0.22,1.19l-0.13,0.4l-0.31,1.1l-0.88,2.29l-0.48,1.32l-0.53,1.1
		l-0.84,1.85l-0.44,0.92l-0.57,1.1v0.04l-0.75,1.28l-0.22,0.48l-0.79,1.23l-0.04,0.04l-0.62,1.23l-0.66,1.23l-0.44,0.92L246,66.25
		l-0.04,0.09l-0.04,0.09l-0.4,0.44L245.42,67v0.09l-0.31,0.26l-1.63-0.62l-0.22-0.13l-0.57-0.09l-0.09-0.66l0.66-0.84l1.23-1.67
		l0.79-1.06l0.7-0.88l1.19-1.85l0.62-1.01l0.4-0.79l0.53-0.92l0.44-0.97l0.09-0.18l0.09,0.13l0.44-0.75l0.44-0.92l1.5-4.05l0.7-2.46
		l0.31-1.98l-0.18-0.92l-0.18-0.66l-0.92-0.75l-1.1-0.18l-0.79-0.04l-1.41,0.09l-0.7,0.09l-0.62,0.22l-1.63,0.75l-1.06,0.62
		l-2.33,1.76l-0.62,0.53l-1.01,0.97l-0.18,0.22l-0.7,0.7l-1.14,1.54l-1.1,1.67l-0.48,0.7l-0.7,1.36l-0.48,0.92l-0.7,1.8l-0.26,0.66
		l-0.31,1.41l-0.04,0.13l-0.13,1.1l-0.13,1.06l0.09,1.1l0.13,0.75l0.97,2.11l1.76,1.5l0.48,0.35l0.35,0.13l0.04,0.18l0.7,0.53
		l1.1,0.75l1.41,0.88l2.33,1.76l0.92,0.66l0.31,0.26l0.53,0.35l0.35,0.4l0.92,0.88l0.62,0.92l0.31,0.75l0.04,0.57l0.22,0.62
		l-0.04,1.45l-0.04,0.04l-0.13,0.48l-0.13,0.57l-0.04,0.09l-0.18,0.48l-0.75,1.36l-0.4,0.22l0.22,0.09l-0.48,0.22l-0.13,0.04
		l-0.7,0.44l-0.26,0.18l-0.7,0.31l-0.57,0.18l-0.66,0.09l-1.41,0.22l-0.79,0.13l-0.88,0.04h-0.53l-0.48,0.04h-0.48l-0.7-0.04
		l-1.23-0.04h-0.04l-0.97-0.35l-0.18-0.13l-0.4-0.18l-0.09-0.04l-0.62-0.26l-0.4-0.18l-0.44-0.44l-0.13-0.18l-0.13-0.22l-0.18-0.26
		l-0.18-0.62l0.18,0.13l-0.04-0.13v-0.4l-0.04-0.18l-0.09-0.84l-0.09,0.04l0.04-0.75h0.09l0.35,0.75l-0.04,0.04l0.13,0.26l0.13,0.48
		l0.18,0.4l0.22-0.26l-0.13-0.22l-0.13-0.35h0.09l0.35,0.26l0.26,0.84l0.04,0.09l0.18,0.22l0.26,0.26l0.18,0.22l0.04-0.04
		l-0.13-0.62l-0.04-0.18l0.04-0.18l-0.09-0.7l0.09-0.04l0.13,0.26l0.44,0.88l0.22,0.53l0.7,0.31l0.62,0.4l0.53,0.04l0.31,0.04
		l0.88-0.13l1.5-0.13l0.22-0.09l-0.13-0.22l-0.26-0.04l-0.84-0.04l-0.57-0.18l0.75,0.04h0.7l0.44,0.04l0.13-0.04l0.26-0.09
		l0.04,0.04l0.13-0.09h0.04l0.13,0.18l0.48-0.04l0.22-0.09l0.31,0.13l0.57-0.09l-0.18-0.31l0.7-0.13l-0.22,0.35l0.79-0.26l-0.4-0.13
		l-0.18,0.04l-0.04-0.13l-0.57,0.13l0.04-0.09l0.53-0.18l-0.04-0.09h-0.44l0.04-0.04l0.75-0.09v-0.09l-0.09-0.09l0.75-0.4l0.04,0.09
		l0.44-0.22l-0.44,0.13l0.35-0.48l0.57-1.14l0.18-0.97l-0.13-1.98l-1.41-2.02l-1.8-1.41l-1.14-0.97l-2.6-1.85l-2.68-1.94l-1.94-1.76
		l-0.53-0.92l-0.44-1.06L232,62.91l-0.18-1.1v-2.33l0.62-2.99l0.7-2.02l1.01-1.8l1.63-2.51l1.58-1.89l1.89-2.02l1.8-1.63l0.53-0.57
		l0.13-0.13l0.57-0.35l0.35-0.18c1.1-0.66,2.16-1.1,3.3-1.36c1.19-0.31,2.42-0.44,3.7-0.4l1.98,0.18l1.63,0.26l0.13,0.04l0.57,0.62
		l0.57,0.88L254.67,44.51z M239.75,81.57l0.4,0.18l0.13-0.13l-0.53-0.09V81.57z M241.16,80.99l0.31-0.04v0.13l-0.35,0.04
		L241.16,80.99z"/>
	<path d="M257.74,79.94l-1.45,0.35l-0.84-0.04l-0.75-0.31l-0.18-0.04l-0.44-0.18l-0.31-0.13l-0.97-0.66l-0.48-0.44l-0.62-0.92
		l-0.18-0.62l0.04-0.26l0.22,0.18l0.13-0.22h0.09v0.18l-0.13,0.26l0.09,0.35l0.18,0.31l0.13-0.09l0.04,0.18l-0.18,0.13l0.88,0.84
		l0.09-0.04l-0.13-0.31l-0.35-0.53l-0.04-0.4l-0.04-0.18l-0.04-0.26l0.31,0.44v0.13l0.26,0.4l0.48,0.53l0.09-0.04V78.4l-0.48-1.54
		l-0.09-1.36v-1.63l-0.04-0.53l0.4-2.55l0.04-0.44l0.22-0.48v-0.09l-0.04-0.44l-0.09-0.04l-0.13,0.13l-0.31,0.35l-0.04-0.04
		l0.26-1.32h-0.35l-0.09,0.18l-0.04,0.09l-0.31,0.57l-0.26,0.57l-0.18,0.79l-0.09,0.18l-0.04,0.57l-0.18,0.48l-0.04,0.48l-0.09,0.48
		l0.04,0.97v0.18l-0.18,0.4l-0.04,0.48l0.09,0.53v0.09l0.09,0.88l-0.26,0.13l-0.13-0.7l0.04-1.54l0.04-1.06l0.13-0.79l0.09-0.84
		l0.53-2.51l1.01-2.68l0.09-0.44l0.18-0.44l0.75-1.54l0.7-1.54l1.32-2.38l0.53-0.84l0.26-0.18l0.26-0.31l0.57-0.48l0.48-0.4
		l0.48-0.18l0.13-0.09l0.18-0.18v0.18l-0.53,0.62l0.79-0.26l0.04-0.26l0.22-0.31l0.26,0.04l0.79,0.18h0.09l0.7,0.13h0.97l0.48,0.09
		l0.26,0.35l0.09,0.62l-0.13,0.57l-0.09,0.18l-0.22-0.13l0.09,0.31v0.44l-0.09,0.35l-0.31,0.79v0.13l-0.35,0.84l-0.09,0.26
		l-0.04,0.09l-0.18,0.4v0.09l-0.26,0.48l-0.44,0.66l-0.66,0.57l-0.22,0.18l-0.53,0.22l-0.26,0.04l-0.22,0.04l-0.44-0.13l0.4-0.31
		l0.44-0.26l0.22-0.22l-0.04-0.35l0.18,0.04l0.4-0.18l0.31-0.7l0.22-0.48l0.18-0.09l-0.13-0.26l0.18-0.4v-0.4l-0.04-0.04l0.13-0.22
		v-0.53l-0.04-0.53l-0.04-0.31l0.09-0.22l-0.13-0.75h-0.48l-0.66,0.44l-0.88,0.79l-1.28,1.76l-0.66,0.92l-0.4,0.79l-0.4,0.66
		l-0.31,0.7l-0.35,0.57l-0.09,0.04v0.13l-0.26,0.62l-0.13,0.35l-0.57,1.72l-0.4,1.28l-0.04,0.22l0.18-0.31h0.04l-0.09,0.57v0.35
		l-0.13,0.53l-0.04,0.09v0.62l-0.04,0.44v0.13v0.4v0.09l0.04,0.44l-0.09,0.92v0.09l-0.13,0.48v0.22l0.09,0.44l0.18,0.79l-0.04,0.22
		l0.18,0.13v0.26l0.09,0.4l0.31,0.48l1.36,1.14l1.1,0.22l0.92-0.18l0.97-0.62l1.19-1.19l1.23-1.28l0.31-0.44l0.22-0.35l0.35-0.09
		l0.31-0.22l0.04-0.35l-0.04-0.22l0.13,0.04l0.35-0.26l0.09-0.44l0.62-0.7h0.04l0.53-1.1l0.53-1.06l0.7-1.28v-0.09l0.13,0.48
		l-0.13,0.7l-0.53,1.54l-0.53,0.84l-0.66,1.1l-0.31,0.57l-0.09,0.35l-0.44,0.57l-0.62,0.7l-0.04,0.4l-0.13,0.18l-0.04-0.26
		l-0.4,0.57l-0.04,0.09l-0.4,0.44l-0.22,0.35l-0.48,0.53l-0.18,0.22l-0.35,0.4l-1.23,0.7l-1.14,0.22H257.74z M253.21,67.44
		l-0.04,0.31h0.13l0.09-0.31H253.21z M253.65,68.23v0.62L254,68.1l-0.04-0.26l0.26-0.57l0.13-0.26l-0.04-0.04l-0.35,0.22l-0.26,0.48
		h-0.04l0.13,0.31L253.65,68.23z"/>
	<path d="M272.04,63v0.22l-0.26,0.13l-0.13,0.35l0.22,0.35l-0.66,0.62l-0.09,0.53l-0.31,0.66l-0.18,0.44l-0.22,0.22v0.35l-0.04-0.04
		l-0.4,0.26l0.13,0.48l-0.31,0.48l-0.31,0.26l0.04,0.4l-0.04,0.18l-0.04,0.26l-0.18,0.48l-0.26,1.01l-0.7,2.51l-0.22,0.92
		l-0.97,3.39l-0.35,0.35l-0.26,0.22l-0.13,0.04l-0.09-0.04l-0.53,0.13l-0.22-0.04l-0.4-0.04l-0.35,0.13l-0.35-0.31l-0.13-0.48
		l0.09-0.31l-0.04,0.35h0.04l0.13-0.31l-0.04-0.09l-0.09,0.04l0.04-0.22l-0.04-0.31v-0.09l0.13-0.22l-0.18-0.31l0.22-0.35l0.09,0.53
		l0.22-0.18l-0.13-0.13l-0.04-0.4l-0.26-0.09l0.18-0.66l0.09-0.31l0.09,0.48l0.22-0.44l-0.13,0.09h-0.04l0.18-1.01v-0.22l0.04-0.22
		l0.09-0.18l-0.22-0.79l0.18-0.26l0.26-0.35l-0.18-0.09l0.09-0.26l0.26-0.44l-0.09-0.04l-0.22,0.26l-0.04-0.09l0.09-0.62v-0.04
		l0.44-0.26l-0.22-0.18l0.18-0.09l-0.22-0.22l0.04-0.44h0.09v0.22l0.09,0.18l0.13-0.13l0.09-0.4l0.09-0.44l-0.09-0.31l0.18-0.4
		v-0.97l0.22-0.13l-0.18-0.66l0.04-0.04l0.18-0.62l0.09-0.57l-0.26-0.04l-0.04-0.13l0.26,0.04l-0.04-0.22l0.26-0.35l-0.13-0.7
		l0.09,0.35l0.22-0.53l0.04-0.26l-0.09-0.48l-0.09-0.57l0.13-0.18l-0.04,0.13l0.22,0.62l0.09-0.84l0.13-0.26l0.04-0.26l-0.04-0.35
		l0.13-0.66l-0.04-0.13v-0.31l0.35-0.26l-0.04-0.04l0.13-0.48h0.09l-0.09-0.09l0.04-0.31l0.22-1.06l0.09-0.53l-0.18,0.18l-0.04,0.04
		l-0.04-0.35l0.31-0.18l0.18-0.22l-0.22,0.09L268,56.31l0.35-0.31v-0.22l-0.09-0.09l-0.09-0.26l0.7-2.38l0.22-0.44l0.09-0.31
		l0.22-0.48l-0.04-0.44l0.04-0.18h0.09v0.13l0.13,0.53l0.18-0.22h-0.18l0.22-0.35h-0.09l-0.04-0.04l0.22-0.18l-0.18-0.09l0.18-0.31
		l-0.04-0.04l-0.26,0.22l-0.04-0.31l0.09-0.22l-0.04-0.26l0.22-0.48l0.35-0.97l0.31-0.84l0.31-0.66l0.22-0.13l0.13-0.22v-0.18
		l0.13-0.4l0.18-0.09l-0.26-0.04l0.09-0.44l0.79-1.58l0.26-0.09l-0.18,0.4l0.04,0.04l0.09-0.09l0.57-1.06l-0.04-0.18l0.18-0.26
		l0.18-0.22l0.09-0.31l0.35-0.44l0.48-0.7l0.48,0.13V40.9h0.26l-0.13-0.22l0.26-0.53l0.22,0.09l1.06-0.44v0.04l0.09-0.18l0.18,0.13
		l0.26-0.04l-0.13-0.09l0.09-0.04h1.76l0.09-0.04l0.26,0.48l-0.04,0.13l-0.04,0.13l-0.31,0.22l-1.23,0.57l-0.97,0.84l-1.06,1.45
		l-0.26,0.57l-0.7,1.19l-1.28,2.42l-0.13,0.18l-0.26,0.48L272.26,49l-0.18,0.62l-1.01,2.95l-0.44,1.32l-0.18,0.48l-0.04,0.48
		l-0.57,1.8l-0.35,1.63l-0.4,1.28l-0.22,1.1l-0.22,1.06l-0.26,1.5l-0.35,1.67l-0.7,4.31l-0.4,2.9l-0.4,2.68l0.04,0.44h0.09
		l0.13-0.31l0.66-2.24l0.53-1.72l0.79-2.02l0.31-0.75l0.88-1.72l0.7-1.28l0.62-1.23l0.66-0.97H272.04z M265.22,75.05l-0.18,0.26
		l0.26,0.04l0.31-0.88l-0.04,0.18L265.22,75.05z M265.13,76.81l0.13-0.04l0.35-0.22l-0.44,0.09L265.13,76.81z M265.22,74.88
		l0.13-0.35l-0.18,0.31L265.22,74.88z M265.62,73.07l-0.22,0.44l-0.13,0.18l0.13,0.22l0.22-0.31l-0.22-0.09l0.31-0.18L265.62,73.07z
		 M265.79,74.13l0.04-0.04l-0.13-0.13h-0.26v0.09L265.79,74.13z M265.75,71.05l-0.13-0.22l-0.09,0.04l0.04,0.35L265.75,71.05z
		 M266.19,65.06l-0.09,0.31h-0.09v-0.31l0.13-0.13L266.19,65.06z M266.37,74.08h0.04l0.13-0.18v-0.04l-0.22,0.04L266.37,74.08z
		 M266.63,64.84l-0.09-0.13v0.4l0.18-0.09l0.13-0.31L266.63,64.84z M267.42,62.34l0.04-0.35l-0.09,0.35H267.42z M267.69,60.31
		l-0.09,0.18l-0.18,0.22l0.09,0.13l0.26-0.35l0.13,0.09l0.26-0.4L267.69,60.31z M267.86,60.05v-0.09L267.64,60l0.04,0.09
		L267.86,60.05z M268.52,57.98l-0.04-0.04l-0.18,0.18l0.04,0.09L268.52,57.98z M268.74,54.68h0.04l-0.04-0.53V54.68z M269.1,53.8
		l-0.09-0.22l-0.13,0.04l0.09,0.22L269.1,53.8z M269.18,54.28v0.26h0.09v-0.31L269.18,54.28z M269.45,53.97l0.09,0.04l0.26-0.57
		l-0.22-0.04l-0.09,0.26L269.45,53.97z M272.66,61.72l0.09-0.09h0.09l0.4-0.18l-0.26,0.53l-0.04,0.18l-0.48,0.57l-0.26,0.13
		l-0.13-0.09l0.09-0.22l0.31-0.35l0.13-0.18L272.66,61.72z M281.77,79.15l1.76-2.51l0.75-0.57l-0.09,0.4l-0.04,0.09l-0.4,0.84
		l-0.22,0.13l-0.13,0.31L283.31,78l-0.13,0.35l-0.57,0.88l-0.44,0.57l-0.22,0.44l-0.7,0.84l-0.26,0.35l-0.66,0.53l-0.75,0.4
		l-1.19,0.22h-0.13l-1.1-0.26l-0.35-0.26l-0.13-0.13l-0.48-0.48l-0.04-0.13l-0.35-0.53l-0.18-0.18l-0.22-0.48l-0.13-0.22l-0.26-0.44
		l-0.04-0.18l-0.09-0.66l-0.04-0.18l-0.13-0.79h-0.18l0.13-0.26v-0.26l-0.18-0.04l0.09-0.31h-0.09l-0.13-0.31l0.13-0.35v-1.58
		l-0.04-0.79l-0.13-2.07v-0.22l-0.18-1.1l0.04-0.88l0.13-0.75l-0.13-0.53l-0.13-0.62l0.04-1.58l0.18-2.6l0.09-1.41l0.13-1.19
		l-0.26-0.13l-0.18,0.09l-0.04-0.26h-0.04l-0.13,0.22l0.22,0.04l-0.31,0.22l-0.22,0.31l-0.62,0.13l0.35-0.53l1.01-1.23l1.1-0.35
		l0.22,0.04l0.66-0.09l0.13-0.04l0.7,0.31l0.22,1.01l0.18-0.13l-0.04,0.31l-0.09,0.13l0.04,0.66l-0.22,0.97v0.09l-0.09,0.22v0.66
		v0.88l0.09,0.62l-0.22,0.44l-0.04,2.07v0.26l-0.44,0.4l0.35,0.09l-0.18,0.35l-0.18-0.09l0.04,0.66l0.18,0.26l0.04,0.31l-0.18,0.44
		l-0.13,0.13l0.22,0.31L276.44,71l-0.09,0.18h0.09v0.22v0.09l0.13,0.62l-0.09,0.35l-0.09,0.26l0.22,0.35l-0.09,0.26l-0.13,0.26
		l-0.04,0.04v0.4h0.18l0.04,0.53l0.09,0.35l-0.22,0.35h0.13l0.04,0.44l0.13,0.18v0.13l0.04,0.7l0.04,0.22l0.09,0.35l0.18,0.22V78
		l-0.13-0.09l-0.04,0.04l0.04,0.18l0.31,0.44l0.04,0.13l0.04,0.35l-0.04,0.22l0.31,0.57v0.35l0.18-0.18l0.18,0.31l0.66,0.79
		l0.62,0.31l0.66-0.26L281.77,79.15z M276.49,61.06l0.13,0.04l0.18-0.26h-0.35L276.49,61.06z M276.71,67.13h-0.09l-0.13,0.75h0.09
		l0.09-0.31L276.71,67.13z"/>
	<path d="M294.79,76.68l1.01-1.1l0.44-0.48l0.31-0.31l-0.13,0.4l-0.18,0.31l-0.88,1.23l-0.53,0.66l-0.62,0.92l-0.48,0.7l-0.53,0.53
		l-0.04,0.04l-0.13,0.35l-0.18,0.13l-0.44,0.09l-0.13,0.09v0.09l-0.18,0.35l-0.04-0.18l-0.62,0.4l-0.31,0.09l-0.22,0.13l-0.26,0.04
		l0.44-0.44l-0.62,0.09l-0.92-0.22l0.4-0.26l0.13-0.22l-0.22-0.35h0.22l0.04-0.26l-0.09-0.7l0.09-0.26v-0.57l-0.13-0.44v-0.09
		l0.18-0.53l0.13-1.85l0.57-1.72l-0.4-0.18l-0.18,0.04l-1.23,1.54l-0.88,1.14l-0.35,0.53l-0.26,0.31l-0.97,0.62l-1.1,0.26l-0.4,0.04
		l-0.57-0.09l-0.57-0.31l-0.57-0.53l-0.22-0.53l0.04-0.04l0.18,0.04l0.13-0.79l0.22-0.92l0.26-0.7l0.09-0.62l0.22-0.75v-0.09
		l0.13-0.62l0.09-0.31l0.4-1.45l0.31-1.1l-0.04-0.18v-0.53l0.35-1.45v-0.26l-0.13,0.09l0.04-1.58l0.22-0.4l-0.04-0.04l0.31-0.26
		l1.32-0.13l0.13,0.04l0.44,0.13l0.44-0.04l0.48,0.4l-0.57,1.63l-0.04,0.09l-0.31,1.32l-0.09,0.4h-0.04l-0.22,1.19l-0.04,0.53
		L287.13,71l-0.18,0.7l-0.48,1.76l-0.18,0.79l-0.09,0.44l-0.26,0.97v0.31l0.44-0.26l1.5-1.8l1.5-2.07l0.26-0.22l0.26-0.26l0.7-1.32
		l0.66-1.1l0.31-0.53l0.22-0.62l0.18-0.31l0.22-0.4l0.4-1.14v-0.35l0.04-0.18l0.26-0.31l0.13-0.13l0.22-0.84l0.04-0.26l-0.18-0.35
		l0.62-1.76l0.92-0.4l0.26,0.04h0.44l0.48,0.09l0.22,0.4l-0.22,1.28l-0.26,1.45l-0.13,1.1l-0.18,0.88l-0.31,0.75l-0.18,0.35
		l-0.09,0.09l-0.09,0.57l-0.04,0.13l-0.04,0.26l-0.13,0.57v0.04l-0.13,0.4l-0.09,0.57l-0.26,0.44l-0.09,0.7l-0.4,1.32l-0.04,0.18
		l-0.04,0.22l-0.13,0.44v0.62l-0.18,0.62l-0.18,0.88l-0.22,0.7l-0.13,1.06l-0.13,0.7l0.04,0.31l0.09,0.35l0.09-0.09L294.79,76.68z
		 M285.9,69.38l0.35-1.63l0.04-0.53h-0.09l-0.09,0.22l-0.22,0.79l-0.04,0.18l-0.09,1.01l-0.04,0.22l0.18-0.22V69.38z M288.5,56.31
		l-0.04-0.84l0.09-0.48l-0.04-0.26l0.31-0.57v-0.22l0.48-0.35h0.26l0.13-0.18l-0.04-0.04l0.31-0.31h0.4l0.31-0.04l0.31,0.04
		l0.13,0.4l-0.09,0.18l-0.04,0.44v0.18l-0.22,0.79l-0.09,0.18l-0.09,0.13l-0.13,1.1l-0.18,0.48l-0.53,0.22l-0.31,0.09h-0.26
		l-0.35-0.48l-0.13-0.22L288.5,56.31z M289.42,57.1l-0.26-0.13l-0.04,0.04l0.13,0.13L289.42,57.1z M289.95,54.9l-0.04,0.04
		l-0.22,0.4l0.04,0.13l0.04-0.09l0.09-0.18l0.13-0.26L289.95,54.9z M291.71,77.56l0.04,0.26h0.13l0.18-2.07h-0.09l-0.18,0.53v0.44
		l-0.04,0.22v0.44L291.71,77.56z M292.28,73.25l-0.13,0.18l0.09,0.13l0.13-0.13L292.28,73.25z M292.37,74.39l0.09-0.4h-0.13
		l-0.09,0.35L292.37,74.39z M292.46,56.31l-0.04-0.84l0.09-0.48l-0.04-0.26l0.31-0.57v-0.22l0.48-0.35h0.26l0.13-0.18l-0.04-0.04
		l0.31-0.31h0.4l0.31-0.04l0.31,0.04l0.13,0.4l-0.09,0.18l-0.04,0.44v0.18l-0.22,0.79l-0.09,0.18l-0.09,0.13l-0.13,1.1l-0.18,0.48
		l-0.53,0.22l-0.31,0.09h-0.26l-0.35-0.48l-0.13-0.22L292.46,56.31z M292.72,72.41l0.04,0.18l0.35-0.48l-0.22-0.04L292.72,72.41z
		 M293.38,57.1l-0.26-0.13l-0.04,0.04l0.13,0.13L293.38,57.1z M293.12,71.05v0.09l0.35-0.31l-0.18-0.26L293.12,71.05z"/>
	<path d="M312.26,82.09l0.44,0.13l3.65-2.38l-0.22,0.48l-0.66,0.88l-0.04,0.04l-1.28,1.23l-1.36,0.7l-1.14,0.35l-1.67-0.35
		l-1.85-1.85l-0.53-1.36l-0.48-1.45l-0.13,0.09l0.09-0.44l0.09-0.31v-0.48l-0.18-1.85l-0.53,0.7l-0.04,0.04l-1.23,1.19l-1.36,0.66
		l-1.1,0.31l-1.63-0.4l-1.98-1.94l-0.53-1.41L298,73.34l-0.13,0.26l-0.04,0.04l-0.48,0.84l-0.4,0.4l-1.14,1.1l-0.18,0.18l-0.66,0.53
		l-0.18,0.18l-0.53,0.57l-0.22,0.26l-0.13,0.18L293.82,78l-0.26,0.13l-0.13,0.04l-0.7,0.26l0.04-0.09l2.33-2.42l1.76-2.77l1.1-1.63
		l0.04-0.18l-0.13-1.1l-0.18-0.35h-0.09l0.13-0.84l-0.13-0.26l-0.04-1.32l0.18-1.67l0.13-1.76l0.04-0.35l0.4-1.72l0.18-1.06
		l0.31-1.5l0.26-1.01l0.04-0.62l0.13-0.26v-0.31l0.26-0.44v-0.26l0.22-0.7l0.26-0.84l0.09-0.53l0.57-1.54l0.4-0.92l0.04-0.31
		l0.18-0.48l-0.04-0.35v-0.13l0.18,0.13l0.22-0.53l0.22-0.57l0.26-0.53v-0.26l0.31-0.75l0.22-0.26l-0.04-0.04l-0.13-0.09l0.13-0.09
		l0.22-0.18l-0.09-0.18l0.13-0.31l0.26-0.18l0.09-0.09l0.48-1.23l0.18-0.13l0.84-1.63l0.18-0.35l-0.31,0.13l0.09-0.31l-0.4,0.26
		l0.35-0.7l-0.62,0.4l0.66-0.79l0.57-1.01l0.31-0.48l0.97-1.32l0.57-0.31l0.13-0.04h0.57l0.18,0.04l0.31-0.09l0.31-0.18l0.92-0.31
		l0.48,0.04l0.26,0.26l0.04,0.22l0.18,0.84v0.31l-0.13,0.57l-0.04,0.04v0.18l-0.22,0.62l-0.04-0.04l0.04-0.35h-0.04l-0.18,0.26
		l-0.09-0.13l-0.35,2.51l0.26-0.09l-0.13,0.13l-0.31,0.4v0.04L309.18,45l-0.09,0.48l-0.31,1.01v0.18v0.22l-0.31,0.66v0.13l-0.22,0.4
		l-0.35,0.31l0.35-1.01l0.44-1.36l0.35-1.72l0.18-0.84l0.13-1.58l-0.09-1.14l-0.53-0.31l-0.35,0.53l-0.62,0.48l-0.13,0.26
		l-0.09,0.18l-0.92,0.97l-0.09,0.31l-0.35,0.53l-0.31,0.57l-0.48,0.88l-0.31,0.35l-0.26,0.44l-0.13,0.31l0.09-0.04l-0.66,1.67
		l0.09,0.26l-0.31,0.31l-0.04,0.13l-0.48,1.32l-0.22,0.48l-0.4,1.01l-0.22,0.31v0.09l-0.18,0.84l0.18-0.04l-0.04,0.09l-0.57,0.97
		l-0.13,0.44l-0.04,0.22v0.22l-0.18,0.4l-0.09,0.31v0.22l-0.26,0.97l-0.04,0.53l0.09-0.22l0.09,0.04l0.35-0.35l-0.26,0.66
		l-0.04-0.18l-0.4,0.26l-0.22,0.75l-0.13,0.31v0.22l-0.09,0.75l-0.18,0.75l-0.18,0.88l-0.22,1.19v0.7L299.94,63v0.31l-0.13,0.79
		v0.75l0.04,0.18h0.04l0.18-1.01l0.09,0.53l-0.09,0.57l-0.22,0.26l-0.22,0.44l0.04,0.35h0.09l0.09-0.57l0.13,1.19l-0.22,0.53
		l0.13-0.88h-0.09l-0.22,1.01l-0.09-0.13l-0.13,0.31h0.04v0.35l0.18,0.26l-0.13,0.22l0.31,0.04v-0.97l0.13-0.18l0.13,0.13l-0.04,1.1
		l-0.26,0.22l0.04,0.18l0.18-0.04l0.09,0.04l0.48-0.88l0.4-0.84l0.31-0.75l0.13-0.35l0.31-0.88l0.26-0.53l0.09-0.09l0.09-0.35
		l0.62-1.45l0.13-0.18l0.04,0.26l-0.04,0.18h0.09l0.35-0.4l-0.09-0.09l-0.22,0.09l0.04-0.31l0.35-0.13l0.26-0.7l-0.04-0.18
		l-0.44,0.88l-0.22-0.09l0.53-1.28l0.09-0.04l0.13-0.26l-0.09,0.04l-0.04-0.04l0.18-0.22l0.13-0.13l0.04-0.35l0.7-1.72l0.35-1.01
		l0.35-0.79l0.18,0.4h0.09l0.04-0.35l0.13-0.22l0.13-0.18l0.26-0.88l0.09-0.22l-0.09-0.35l-0.22,0.13l-0.04-0.44l0.26-0.75
		l0.35-0.88l0.18-0.31l0.13-0.18v-0.31l0.09-0.4l0.13-0.35l0.48,0.35l-0.18-0.31l0.18-0.22l-0.44-0.04l0.31-0.22l0.13,0.22
		l0.18-0.18l0.09-0.26l0.04,0.31l-0.18,0.75l0.13-0.18l0.18-0.04v0.13l-0.09,0.13l-0.13,0.22l-0.04,0.13l-0.26,0.57l-0.04,0.13
		l-0.13,0.48l-0.13,0.13l0.09,0.35l-0.26,0.84l-0.09,0.31l-0.09,0.13l-0.04,0.31l-0.22,0.09v0.31l-0.04,0.35l-0.35,0.79l-0.22,0.44
		l-0.04,0.22l-0.31,0.26h-0.09l0.09,0.53l-0.35,0.88l-0.31,0.84l-0.13,0.26l-0.4,0.75l-0.09-0.09l-0.18,0.97l-0.13,0.44l-0.18,0.31
		l-0.26,0.66l-0.09,0.18l-0.35,0.7l-0.44,0.79l-0.04-0.13l-0.04-0.04l-0.35,0.18l0.35,0.13l-0.04,0.18l-0.13-0.04l-0.22-0.04
		l-0.13,0.22v0.13l0.13,0.26l0.09-0.18h0.04v0.13l-0.13,0.4l-0.4,1.06l-0.88,1.67l-0.26,0.18l-0.04,0.04l-0.04,0.44l-0.13,0.35
		l-0.13,0.35l0.18,0.4l-0.26-0.04l0.4,2.77l0.09-0.04l-0.04-0.31l0.13,0.35l-0.09,0.22l0.48,1.32l0.22,0.26l0.04,0.13l0.09,0.31
		l0.13,0.09l0.09-0.18l0.04,0.04l0.79,1.1l0.7,0.48l0.44,0.09l0.7-0.26l1.19-1.23l1.32-1.85l-0.13-1.94l0.04-0.79l-0.04-0.26
		l-0.09-1.32l0.48-3.43V65.9l0.22-0.79l0.35-1.28l0.13-0.97l0.4-1.5l0.26-1.01l0.09-0.57l0.09-0.18l0.04-0.09v-0.35l0.31-0.44
		L309,58.46l0.31-0.7l0.26-0.84l0.09-0.53l0.66-1.54l0.4-0.97l0.13-0.31l0.13-0.44v-0.4v-0.13l0.18,0.13l0.18-0.53l0.31-0.57
		l0.22-0.53l0.09-0.31l0.31-0.75l0.22-0.26l-0.09-0.04l-0.04-0.09l0.09-0.09l0.22-0.13l-0.04-0.22l0.09-0.31l0.26-0.18l0.13-0.09
		l0.53-1.58l0.26-0.57l0.09-0.09l0.92-1.67l0.22-0.35l-0.35,0.13l0.09-0.26l-0.4,0.26l0.4-0.75l-0.62,0.44l0.62-0.84l0.66-1.01
		l0.35-0.53l1.01-1.32l2.51-1.5l1.01,0.57l0.22,0.22l0.04,0.22l0.13,0.84v0.26l-0.13,0.62l-0.04,0.04v0.18l-0.22,0.62l-0.09-0.04
		l0.09-0.35h-0.04l-0.18,0.31l-0.09-0.13l-0.44,2.46l0.22-0.09l-0.4,0.53l-0.04,0.04v0.4l-0.18,0.57l-0.31,1.01l0.04,0.13
		l-0.04,0.09l-0.26,1.06l-0.35,0.66v0.13l-0.22,0.62l-0.35,0.13l0.4-1.06l0.71-2.29l0.44-1.67l0.22-1.01l0.18-1.41l-0.09-1.14
		l-0.48-0.26l-0.4,0.53l-0.66,0.44l-0.13,0.31l-0.04,0.18l-0.97,0.97l-0.13,0.35l-0.35,0.53l-0.35,0.57l-0.53,0.92l-0.31,0.35
		l-0.26,0.4l-0.13,0.31h0.09l-0.92,2.55l0.04,0.26l-0.31,0.31l-0.09,0.13l-0.53,1.36l-0.18,0.44l-0.48,1.06l-0.18,0.31l-0.04,0.13
		L312,54.5l0.26-0.09l-0.09,0.13l-0.57,0.97l-0.22,0.44v0.18l-0.04,0.26l-0.18,0.4l-0.13,0.31v0.22l-0.22,0.92l-0.09,0.57l0.13-0.22
		h0.04l0.4-0.31l-0.35,0.66v-0.18h-0.04l-0.35,0.26l-0.26,0.75l-0.13,0.31l-0.18,1.1l-0.18,0.62l-0.22,0.88l-0.22,1.19l-0.04,0.7
		l-0.09,0.31v0.31l-0.13,0.88l-0.04,0.66l0.09,0.18h0.04l0.13-1.01l0.13,0.53L309.31,67l-0.26,0.31l-0.22,0.31l0.04,0.48l0.13-0.04
		l0.13-0.57l0.09,1.1l-0.31,0.62l0.22-0.88h-0.09l-0.31,1.01l-0.09-0.13l-0.13,0.31h0.04v0.35l0.13,0.26l-0.13,0.22h0.04l0.18-0.35
		l0.04-0.13l0.04,0.53h0.04l0.04-0.97l0.09-0.18l0.13,0.13l-0.09,1.06l-0.22,0.22v0.04v0.13v0.04l0.13-0.04l0.13,0.04l0.57-0.92
		l0.4-0.84l0.31-0.75l0.53-1.23l0.31-0.53v-0.09l0.09-0.4l0.75-1.45l0.09-0.18v0.26l0.04,0.18h0.04l0.31-0.44l-0.04-0.04l-0.22,0.04
		l0.04-0.31l0.4-0.09l0.26-0.75v-0.18l-0.48,0.88l-0.26-0.04l0.66-1.28l0.04-0.04l0.13-0.31l-0.09,0.04h-0.04l0.22-0.22l0.09-0.13
		l0.04-0.4l0.79-1.72l0.35-1.01l0.4-0.84l0.18,0.4h0.09l0.09-0.35l0.13-0.22l0.13-0.18l0.35-1.1v-0.35l-0.26,0.18V56l0.26-0.75
		l0.35-0.88l0.22-0.31l0.13-0.22v-0.26l0.13-0.4l0.09-0.35l0.53,0.31l-0.18-0.31l0.18-0.22h-0.4l0.26-0.26l0.13,0.22l0.18-0.18
		l0.13-0.26v0.31l-0.22,0.75l0.18-0.18l0.18-0.04l-0.04,0.13l-0.09,0.13l-0.13,0.22v0.13l-0.31,0.57l-0.04,0.13l-0.18,0.48
		l-0.09,0.13v0.4l-0.26,0.79l-0.09,0.35l-0.09,0.09l-0.09,0.31l-0.22,0.13v0.26l-0.04,0.4l-0.4,0.79l-0.22,0.44l-0.09,0.31
		l-0.31,0.18h-0.04l0.04,0.48l-0.35,0.97l-0.35,0.84l-0.13,0.26l-0.4,0.75l-0.13-0.09h-0.04l-0.13,0.97l-0.22,0.4l-0.13,0.4
		l-0.26,0.66l-0.09,0.18l-0.48,0.7l-0.4,0.79l-0.09-0.13l-0.04-0.04l-0.31,0.18l0.31,0.13l-0.04,0.18l-0.31-0.09l-0.22,0.4
		l0.18,0.22l0.04-0.18h0.04l0.04,0.18l-0.18,0.4l-0.44,1.06l-0.92,1.67l-0.22,0.18l-0.09,0.04l-0.09,0.44l-0.09,0.35l-0.22,0.75
		l0.04,0.7l-0.22-0.04l0.53,5.37h0.13l-0.04-0.31l0.09,0.35l-0.04,0.18l0.44,1.32l0.22,0.26v0.13l0.09,0.31l0.18,0.09l0.04-0.18
		l0.04,0.04l0.79,1.06L312.26,82.09z M299.72,72.37l0.09-0.04v-0.04l-0.04-0.7h-0.09l-0.09,0.09l0.04,0.4L299.72,72.37z
		 M300.25,63.7l-0.22,0.22v-0.57l0.13-0.13l0.13,0.09L300.25,63.7z M300.07,73.86l0.22,0.04l0.09-0.04l-0.22-0.35L300.07,73.86z
		 M300.55,60.71l-0.04,0.97h-0.09l0.04-0.97H300.55z M301.87,66.34h-0.22l-0.09,0.26h0.04L301.87,66.34z M302.05,55.03l-0.26,0.26
		l0.18-0.88l0.09-0.13v-0.31l0.53-0.66l-0.31,0.92v0.09L302.05,55.03z M302.75,52.39l0.22-0.35l0.18-0.35l0.09,0.09l-0.26,0.84
		l-0.04,0.09L302.75,52.39z M304.03,43.94v0.35l-0.44,1.14l0.09,0.13l-0.18,0.22l-0.26,0.35l0.13-0.26h-0.09l-0.44,0.44l-0.04-0.04
		L304.03,43.94z M303.94,60.35l-0.31,0.79l0.04,0.04l0.31-0.22l0.04-0.09L303.94,60.35z M304.21,44.25l0.22-0.57h0.09l-0.22,0.66
		h-0.09V44.25z M305.57,56.13h-0.04l-0.04-0.4l0.13-0.04L305.57,56.13z M305.75,54.85h0.04l-0.04,0.62l-0.18-0.13L305.75,54.85z
		 M306.32,53.84l-0.18,0.7l0.18-0.09l0.04-0.04l0.31-0.84l0.09-0.7h-0.09l-0.18,0.4L306.32,53.84z M307.11,51.73l-0.13,0.35
		l-0.04,0.26h0.22l0.22-0.75l-0.04-0.04L307.11,51.73z M308.12,48.56v0.31l-0.62,1.58l-0.13,0.22l-0.13-0.18l0.57-1.72l0.26-0.22
		H308.12z M307.99,50.85h-0.04l0.13-0.4l0.09-0.35l-0.31-0.31l0.26-0.09l-0.13-0.13h0.09l0.26,0.4l-0.04,0.4l-0.04,0.22
		L307.99,50.85z M308.3,49.09l0.09-0.35l0.09,0.04l-0.09,0.31H308.3z M308.61,48.56h-0.09l0.04-0.44l0.09-0.04l0.22,0.13l-0.18,0.13
		l0.04-0.04L308.61,48.56z M308.92,47.02l0.31-1.06l0.09,0.92l-0.44,0.79h0.09l-0.31,0.4v-0.26l0.18-0.4l0.09-0.35V47.02z
		 M309.13,79.06l0.26,0.04l0.04-0.04l-0.18-0.35L309.13,79.06z M309.36,65.81v-0.57l0.09-0.13l0.13,0.09l-0.04,0.44L309.36,65.81z
		 M309.66,44.12h0.13l-0.18,0.75h-0.09L309.66,44.12z M309.88,41.12l0.04-0.09h-0.26l0.04,0.09H309.88z M309.93,42.93h-0.09
		l-0.09-0.26h0.18V42.93z M309.88,62.6h0.04v0.97h-0.09L309.88,62.6z M309.97,42.09h0.04l-0.04,0.4h-0.09L309.97,42.09z
		 M311.07,68.14h-0.18l-0.18,0.26l0.09,0.04L311.07,68.14z M311.56,56.26l0.09-0.13l0.04-0.26l0.53-0.7l-0.26,0.92l-0.09,0.09
		l-0.18,0.7l-0.31,0.26L311.56,56.26z M312.44,54.19l0.26-0.35l0.18-0.31h0.09v0.09l-0.26,0.79l-0.13,0.09L312.44,54.19z
		 M314.28,44.86v0.31l-0.53,1.23l0.13,0.09l-0.26,0.26v0.04l-0.22,0.31l0.13-0.26h-0.09l-0.48,0.44h-0.04L314.28,44.86z
		 M313.4,62.16l-0.35,0.75l0.04,0.04l0.31-0.18l0.04-0.18L313.4,62.16z M314.68,44.6h0.09l-0.26,0.7l-0.04-0.04l-0.04-0.04
		L314.68,44.6z M315.16,57.89h-0.04l-0.04-0.44h0.13L315.16,57.89z M315.38,56.57l0.04,0.04l-0.09,0.57l-0.13-0.09L315.38,56.57z
		 M315.91,55.56l-0.09,0.7l0.13-0.09l0.35-0.88l0.04-0.04l0.13-0.66h-0.09l-0.22,0.4L315.91,55.56z M316.88,53.4l-0.18,0.4
		l-0.04,0.26h0.22l0.26-0.79l-0.04-0.04L316.88,53.4z M317.98,50.23v0.31l-0.7,1.58l-0.13,0.22l-0.09-0.18l0.62-1.72l0.22-0.22
		H317.98z M317.8,52.52h-0.09l0.18-0.44l0.09-0.31l-0.31-0.31l0.26-0.09l-0.09-0.13h0.04l0.22,0.35v0.4l-0.09,0.26L317.8,52.52z
		 M318.24,50.41h0.09l-0.09,0.35l-0.13-0.04L318.24,50.41z M318.6,49.71l0.13,0.18l-0.13,0.09v-0.04l-0.13,0.26h-0.09l0.04-0.4
		L318.6,49.71z M318.82,48.69l0.57-1.98v0.92l-0.62,1.67l0.04,0.04l-0.26,0.35l-0.04-0.22l0.22-0.4L318.82,48.69z M319.83,45.61
		h-0.09l0.04-0.22l0.09-0.22l0.04-0.31h0.13L319.83,45.61z M320.27,41.87v-0.09H320l0.09,0.09H320.27z M320.18,43.41v0.26h-0.09
		l-0.04-0.22L320.18,43.41z M320.27,42.84h0.04v0.4h-0.09L320.27,42.84z"/>
	<path d="M337.87,67.57L338,67l-0.04,1.06l-0.09,0.44v0.04l-0.4,1.72l-0.44,0.92l-0.13,0.26l-0.48,1.1l-0.18,0.13l-0.18,0.22v0.13
		l-0.44,0.92l-0.09,0.13l-0.66,1.19l-0.53,0.79l-0.66,0.92l-0.79,1.23l-1.28,1.54l-0.44,0.44l-0.35,0.48l-0.53,0.53l-0.53,0.35
		l-0.62,0.31l-0.48,0.22l-0.04-0.04v0.13h-0.26l-0.04,0.04l0.04,0.04v0.04l-0.18-0.04l-0.88-0.09l-0.57,0.09l0.13-0.79l0.09-0.09
		l-0.26-0.31l-0.13-0.53l0.04-0.4l0.13-0.97l0.13-0.22h0.09v0.18l-0.09,0.66l0.13,0.22h0.18l0.09-0.13l-0.04-0.4l0.22-0.62
		l0.13-0.53l0.04-0.62l0.04-0.22l0.66-1.45l0.57-1.67l0.48-1.32l0.88-2.24l0.66-1.72l0.18-0.4l-0.26,0.22l0.04-0.13l0.18-0.4
		l0.18-0.26l0.09-0.22l0.35-0.7l0.04-0.35l0.13-0.44l0.22-0.53l0.09-0.22l0.22-0.26l-0.18-0.31l-0.09-0.09l0.4-0.97l0.13-0.13v0.44
		l0.31-0.75l-0.31,0.26l0.44-1.32v-0.44l-0.13,0.09l0.13-0.57l0.31-1.14l-0.4-0.26l-1.23,0.31l-0.66,0.22l-1.06,0.31l-0.62,0.4
		l-0.09,0.22v0.09l-0.09,0.44v0.48l-0.09,0.35l0.13,0.44l-0.13,0.44l-0.18,0.22l-0.04-0.04l-0.13,0.31l0.31,0.22l-1.36,3.43v-0.04
		l-0.26,0.18l-0.35,0.84l-0.26-0.09l-0.04,0.04l0.22,0.18L327,69.24l-0.18-0.04l-0.18,0.31l0.04,0.13l-0.31,0.92l-0.09-0.13
		l-0.13,0.13l0.04,0.13l-0.35,0.53l-0.18,0.4l-0.31,0.48l-0.18,0.31l-0.22,0.18l-0.09,0.13l-0.26,0.09l-0.18,0.35v0.18l-0.57,0.88
		l-0.66,0.88l-0.71,0.88l-0.22-0.04v0.09l-0.31,0.35l-0.18,0.09l-0.35,0.35l0.22-0.09l-0.44,0.22l-1.8,0.97l-0.48,0.04h-0.31
		L318.2,78v-0.04l0.22-0.22l-0.44-0.22l-0.09-0.13l-0.75-0.13l-0.18,0.09v-0.18l-0.35-0.4l0.26,0.09l0.62,0.26l0.09-0.26l-0.79-0.92
		l-0.04-0.13l-0.4-0.7L316,74.83l0.18-0.13L316,74.35L315.95,74v-0.04l-0.09-0.57l0.13-0.79l0.09-1.06l0.13-1.01l0.22-1.19l0.09-0.4
		l0.09-0.62v-0.18l0.48-1.45l0.09-0.18l0.04-0.26l0.18-0.84l-0.04-0.09h-0.09l-0.18,0.48l-0.4,0.57v-0.62l0.04-0.04l0.04,0.18
		l0.04,0.04l0.62-1.28l-0.04-0.04l-0.18,0.09l-0.04-0.04l0.4-0.53l0.04-0.04l-0.04-0.13l0.4-0.75l0.97-1.67l0.26-0.26l0.57-0.84
		l0.53-0.79l0.22-0.09l0.22,0.18l0.79-0.4l0.13-0.04l0.75,0.18h0.13l0.44-0.09l0.31-0.04l0.53,0.04l0.18-0.18l-0.18-1.23l-0.44-0.44
		l0.26-0.31l0.57-0.35l0.92-0.13l0.4,0.09h0.4l0.62,1.06l-0.04,0.57l-0.18,1.19l-0.18,0.22l0.04,0.35l-0.04,0.13l-0.26,0.48
		l-0.35,0.92v0.22l-0.26,0.79l-0.09,0.18l-0.31,0.35l-0.09,0.35l-0.84,1.19v0.09l-0.4,0.62l-0.35,0.4l-0.35,0.35l-0.13,0.13
		l-0.13-0.04l0.04,0.18l-0.92,0.35l-0.84-0.09l-0.04,0.44v0.09l0.13,0.04l0.35-0.09h0.18l0.04,0.09l-0.53,0.35l-0.4-0.09l-0.31-0.31
		l-0.4,0.13l-0.35-0.09l-0.04-0.04l-0.26-0.09l-0.13,0.31l-0.09,0.26l-0.13,0.44l-0.35,1.72l-0.13,0.48l-0.18,0.7l-0.09,0.62v1.06
		l-0.18-0.13l0.09-2.2l0.09-2.16l-0.04-0.18h-0.04l-0.22,0.44l-0.22,1.28l-0.35,1.67l-0.09,0.92l-0.04,0.31l-0.04,0.66l-0.09,0.22
		l-0.09,0.26l0.13,0.57l0.22,0.31l0.22,0.35l0.18,0.31l-0.31-0.09l-0.22,0.13l0.18,0.22h0.09l1.06,0.7l-0.09,0.18l0.22,0.13h0.04
		l0.4-0.04l0.09-0.04l-0.04-0.13l-0.13-0.35l-0.13,0.04l-0.53-0.26l-0.35-0.26l0.48,0.18h0.4l-0.04-0.13l-0.57-1.01l-0.04-0.48
		l-0.13-0.92v-0.26h0.04l0.13,0.53l0.26,0.48l0.13,0.18l-0.18,0.26l1.41,1.32l0.26,0.09l0.48-0.18l1.41-1.36l0.92-1.06l0.13,0.04
		l0.35-0.22l2.33-3.7l0.75-1.28l0.22,0.04l0.04-0.18v-0.31l0.26-0.66l0.92-1.94l1.01-3.3l0.04-0.31l-0.92,0.44l0.04-0.09l-0.18-0.09
		l-0.04-0.18l-0.13-0.31l0.09-0.62l0.09-0.22l0.18-0.53l0.22-0.4l0.04-0.04l0.66-0.35l0.4-0.44v-0.09l0.09-0.04l0.18,0.48l0.18,0.09
		l1.1-0.18l0.48-0.04l1.23-0.04l0.26,0.04l0.66-0.04l0.04-0.04l1.41,0.18l0.7,0.62l-0.75,0.53l0.13,0.04l0.79-0.13h0.35l0.09,0.26
		l-0.04,0.18l0.09,0.35l0.31,0.22l-0.57,0.09l-0.18,0.13l-0.18,0.35l-0.44,1.14l-0.04,0.31l-0.18,0.31l-0.18,0.4l-0.09,0.26
		l-0.18,0.48l-0.22,0.13l-0.09,0.26v0.26l-0.4,1.1l-0.04,0.09l-0.53,0.62l-0.26,0.7l0.13,0.48l-0.13,0.31l-0.53,0.48v0.04v0.13
		l-0.31,0.31v0.18l-0.48,1.06l-0.4,0.57l-0.13,0.26l-0.4,1.19l-0.18,0.53l-0.26,0.4l-0.35,0.66l-0.18,0.26l-0.09,0.35v0.31
		l-0.18,0.18l-0.35,0.57l-0.09,0.22l-0.26,1.14l-0.13,0.18l-0.04,0.18l-0.22,0.66l-0.09,0.53l-0.31,1.01l-0.13,0.09l0.22,0.35h0.48
		l1.36-1.32l1.01-1.14l1.1-1.19l1.23-1.41l1.98-2.42l0.35-0.62l0.31-0.48l0.18-0.26l0.31-0.57l0.66-1.54L337.87,67.57z
		 M316.13,74.04l0.18,0.35l0.09-0.04L316.13,74.04z M316.35,67.13l-0.18-0.44l0.26-0.04l0.18,0.26l-0.31,0.66l0.04-0.4V67.13z
		 M317.67,76.99l0.53,0.13v-0.13l-0.53-0.04V76.99z M317.71,64.01l0.18,0.13l0.13-0.09l-0.22-0.13L317.71,64.01z M319.74,65.9v0.04
		l-0.18,0.53l0.26,0.13l0.4,0.18l0.18,0.04l0.4-0.26l0.48,0.13h0.09l0.53-0.31l0.22-0.09l0.48-0.44l0.31-0.62l0.26-0.75l0.48-1.5
		l0.4-1.67v-0.04v-0.4l-0.53,0.18l-1.06,0.79l-1.19,1.5l-0.57,0.84l-0.35,0.66L319.74,65.9z M329.33,73.91l-0.04-0.04l-0.13,0.26
		l0.04,0.04L329.33,73.91z M329.99,72.24l-0.09-0.04l-0.09,0.18l0.35-0.04l-0.09-0.22L329.99,72.24z M330.56,71.44l-0.04-0.22
		l-0.57,0.79l0.13,0.04l0.31-0.4l0.44,0.18l0.18-0.57l-0.26,0.31L330.56,71.44z M329.99,73.12l0.09,0.04l0.18-0.13l-0.04-0.13
		L329.99,73.12z M330.78,71.14v-0.4l-0.22,0.04l0.09,0.48L330.78,71.14z M331.31,70.08h-0.09l-0.18,0.44h0.09L331.31,70.08z
		 M331.97,71.8l-0.18,0.35l-0.09-0.04l0.22-0.35L331.97,71.8z M332.24,70.92l-0.04-0.04l0.09-0.18l0.09-0.13l0.04,0.18L332.24,70.92
		z M333.64,60.14l-0.18,0.13l0.04,0.22l0.66,0.04l0.04-0.09L334,60.09L333.64,60.14z M333.73,68.85l-0.26,0.04l0.44-0.75l0.09,0.04
		L333.73,68.85z"/>
	<path d="M375.66,56.13l-0.4,0.57v0.22l0.04,0.09l-0.18,0.31l-0.22,0.18h-0.04l0.04,0.22v0.26l-0.22,0.44v0.35l-0.22,0.31
		l-0.22,0.13l0.13,0.09l-0.13,0.22l0.35,0.13l-0.09,0.22l-0.4,0.04v0.04l0.13,0.09h-0.04v0.53l0.26-0.04l-0.22,0.35l-0.31,0.18
		l0.4,0.18l-0.31,0.44l-0.26,0.84l-0.48,0.18l-0.04,0.22l0.31-0.04l-0.09,0.44l-0.44,0.18h-0.13v0.35l-0.22,0.13v0.22l0.4-0.09
		l-0.31,0.84l-0.26,0.04l0.18,0.22l-0.57,0.44l0.09,0.48l-0.31,0.62l-0.35,0.35l-0.04,0.26l-0.53,0.7l-0.09,0.09l-0.13,0.26h-0.57
		l0.22-0.26l-0.04-0.04l-0.18,0.09l-0.22,0.09v-0.13l0.26-0.57l0.57-1.1l0.04-0.26l0.48-1.1l0.48-1.41l0.09-0.18l-0.04-0.13
		l0.26-0.35l0.04-0.31l-0.04-0.22l0.35-1.1l0.62-2.46l0.26-1.14l0.13-0.4l0.44-3.87l-0.09-1.45l-0.26-0.97l-0.18-0.84v-0.04
		l-0.44-0.84l-0.53-1.19l-0.84-1.41l-0.09-0.13l-0.62-0.62l-1.19-0.92l-0.22-0.22l-0.48-0.31l-0.44-0.22l-0.88-0.53h-0.04
		l-1.67-0.48l-1.19-0.22l-1.19-0.09l-0.66,0.04l-0.4-0.04l-1.19,0.13l-0.26,0.04l-1.54,0.18l-1.8,0.53l-0.22,0.4l-0.04,1.58
		l-0.26,1.89l-0.31,0.97l-0.22,0.44l-0.13,0.4v0.22l-0.13,0.35l-0.09,0.4l-0.44,0.62l0.04,0.09l0.04,0.53l-0.53,1.58v0.04
		l-0.13,0.53l0.18,0.04l-0.66,3.04l0.09,0.04l-0.09,0.22l-0.13,0.4l0.22,0.26l0.26-0.22l0.09-0.13l0.13,0.26l0.09-0.09l0.13-0.22
		l0.13-0.09l0.09,0.04l0.53-0.22v-0.09l-0.26,0.09l0.04-0.18l0.35-0.09l0.26-0.09l0.48,0.04h0.31l0.13-0.09l-0.31,0.04l0.09-0.26
		l0.35,0.22l0.04-0.26l0.13-0.13l0.04,0.09v0.31l0.04,0.22l-0.04,0.18l0.09-0.04l0.18-0.53l0.13-0.18l0.22-0.09l0.44-0.31l0.26-0.09
		l0.26-0.04l0.48-0.31l0.09-0.22v-0.04l0.18-0.09l0.04,0.31l0.35-0.35l0.62-0.31l0.22,0.09h-0.04l-0.53,0.53l-0.31,0.4l0.13-0.35
		l-0.09-0.04l-0.4,0.62l0.18,0.04v0.04l-0.26,0.04l-0.4,0.44l-0.75,0.35l-0.57,0.35l-0.09,0.18h-0.09l-0.4,0.31l0.04-0.4l-0.26,0.18
		l-0.13,0.44l-0.35,0.13l-0.04-0.22l-0.13,0.04l-0.09,0.26l-0.22-0.09l-0.22-0.04l-0.18,0.04l-0.53,0.31l-0.13,0.09l-0.22,0.04
		l-0.04-0.04l-1.32,0.4l-0.04,0.09l0.13,0.09l-0.13,0.13l0.04,0.04l0.62-0.04l0.04,0.09l-0.22,0.13l-0.13,0.13l-0.26,0.04
		l-0.13,0.88l-0.22,0.31l-0.35,0.57l0.22,0.13l-0.13,0.48l0.18,0.44l-0.09,0.4l0.22,0.22l-0.18,0.22l-0.04,0.13l-0.09,0.35v0.26
		l-0.04,0.18h-0.04l-0.04-0.18l-0.26,0.31l-0.22,0.26l0.44-0.26l0.04,0.09l-0.57,0.57l-0.22,0.35l0.18,0.04l0.26-0.13l0.04,0.04
		l-0.18,0.09l-0.22,0.31l-0.18,0.62v0.35v0.4l-0.04-0.18h-0.09l-0.04,0.44l0.22,0.26v0.09l-0.57,0.7l0.35,0.48l-0.26,0.09
		l-0.13,0.09l-0.09,0.44l0.31,0.18v0.22l-0.18,0.7l0.04,0.13l-0.26,0.31l-0.04,0.22h0.18l0.04,0.53l-0.04,0.7h-0.09l-0.04-0.31
		l-0.09,0.26l0.18,0.13l-0.18,0.57l0.18,0.09l-0.22,0.09l0.04,0.31l0.4-0.35l0.13,0.62l-0.13,0.62l-0.22,0.53l0.13,0.13l-0.22,0.22
		l0.04,0.35l-0.09,0.4l0.04,0.22l0.13-0.04l0.22-1.01l-0.13-0.13l0.22-0.44l-0.04-0.04l0.35-1.45l0.04-0.18v-0.26l0.09-0.62
		l-0.04-0.18l0.31-0.62v-0.4h0.09l-0.13,0.53l0.09,0.22l0.04,0.26l0.09,0.44v0.22l0.04,0.13l-0.04,0.48l-0.04,0.18l0.09,0.57
		l-0.31,0.09v0.04l0.18,0.13l0.13,0.31v0.4v0.44v0.4l-0.13,0.79l0.04,0.4v0.04l0.18,0.44l-0.04,0.66l-0.13,0.4l0.22,1.01l0.04,0.35
		l0.04,0.44l0.26,0.26l-0.09-0.04l0.22,0.22h0.35l0.22-0.04v-0.09l-0.31-0.09l0.31-0.18l0.13-0.04l0.48-0.31l0.44,0.09l0.4,0.04
		l0.18-0.09l-0.04-0.22l0.48,0.04l0.35-0.09h0.48l-0.7,0.18l-0.66,0.26h-0.35v0.18l-0.22,0.09l0.26,0.18h0.48l0.26-0.09l0.22-0.09
		l0.62-0.18l0.04,0.09l-0.18,0.09l-0.09,0.18l-1.8,0.18l0.09,0.09h-0.31l-0.04-0.18l-0.62,0.13h-0.53l0.04,0.13l0.04,0.13
		l-0.18-0.09l-0.13,0.04l0.18,0.26l-0.26,0.4l-0.09,0.26l-0.4,0.4l-0.18-0.09l-0.22,0.09l-0.48,0.13l-0.44-0.13l-0.66-0.26
		l-0.18-0.44l0.04-0.09l-0.35-0.09l0.04-0.31h0.18l-0.22-0.13l-0.4-0.09l0.18-0.13l-0.22-0.18l-0.22-0.04l0.09-0.09l0.31-0.04
		l0.18,0.09l0.13-0.04l-0.48-0.22l0.26-0.13l0.09-0.22l-0.18-0.13l-0.18-0.04l-0.13-0.09l0.18-0.09l0.4-0.04h0.22l0.22-1.32
		l-0.09-0.18l0.04-0.35l0.04-0.75v-0.62l0.04-1.01l0.04-0.22l0.04-1.23l0.04-0.18v-0.53l0.04-1.01l-0.04-0.26l0.13-2.33v-0.09
		l0.18,0.13l-0.13-0.26l-0.04-0.92l0.04-1.28l0.04-0.22l0.09-0.31l-0.13-0.04l0.18-0.48l0.09-0.26l0.13-0.31l0.13-0.57l0.13-1.89
		l0.04-0.13l0.09-0.48l0.04-0.75l0.13-0.57v-0.22l-0.18,0.09l0.22-1.19l0.18-0.22l0.09-0.18l-0.44,0.48l-0.04-0.35l-0.22,0.26v-0.18
		l-0.35,0.26l-0.13-0.04l-0.4,0.09l-0.62-0.13l-0.09-0.26l-0.35,0.18V60h-0.4l-0.44,0.09l0.04-0.35l-0.66-0.04l-0.26-0.04
		l-0.31,0.13l-0.18-0.31h-0.57l0.22-0.31l-0.35-0.18l-0.09,0.04l0.04,0.09l0.22,0.18l-0.22,0.04l-0.7-0.44v-0.18l0.09-0.22
		l-0.04-0.04l-0.22,0.22v-0.75l-0.13-0.18h-0.09l-0.31-0.22l-0.22-0.53l-0.13-0.4l-0.22-1.1l0.18-1.36l0.53-1.89l0.09-0.48v-0.84
		l1.72-2.95l0.57-0.57l0.84-0.75l0.13-0.04l0.88-0.97l2.02-1.32l2.29-1.28l3.34-1.41l3.17-0.62l2.07-0.18l1.58,0.18l1.32,0.26
		l2.2,0.66l1.23,0.62l0.7,0.4l0.92,0.62l0.35,0.44l0.4,0.31l1.01,1.01l0.18,0.31l0.57,0.79l0.62,1.01l0.13,0.44l0.7,1.5l0.22,0.92
		l-0.26,0.09l0.31,0.18l0.26,0.31l0.04,0.44l0.13,0.35l0.09,0.22l0.22,0.75v0.26l-0.09,0.13l0.09,0.35v0.44v0.18l-0.13,0.4
		l-0.18,0.22v0.18l0.18-0.09l0.48-0.13l-0.26,0.31l-0.09,0.22l-0.22,0.44v0.18l-0.09,0.22l-0.22,0.4L375.66,56.13z M352.87,57.76
		l0.04,0.04v-0.04H352.87l-0.18,0.04l0.09-1.06l0.04-0.22l0.18-0.57l0.13-0.35v-0.4v-0.22l0.18-0.44l-0.04-0.35l0.04-0.09l0.13-0.35
		l0.26-1.8V51.6l0.13-0.4v-0.44l-0.04-0.18l0.13-0.7l-0.09-0.4v-0.22l0.22-0.88l0.04-0.09l0.04-0.62l0.26-1.1l0.18-1.06l-0.79,0.4
		l-0.84,0.48l-0.48,0.35l-0.26,0.18l-0.22,0.18l-0.18,0.18l-0.18,0.13l-0.66,0.53l-0.57,0.31l-2.07,1.41l-0.26,0.31l-0.66,0.79
		l-0.26,0.31l-0.66,1.54l-0.18,0.57l0.09,1.06l0.13,0.53l0.53,0.97l1.36,1.06l0.35,0.35l0.26,0.26l0.44,0.13l0.04,0.13l0.31,0.18
		h0.7l0.22,0.04h0.26l0.09-0.04l0.66,0.04h0.04l0.35,0.18l0.53-0.09L352.87,57.76z M347.54,78.75l0.09-0.13l0.4,0.35l-0.04,0.09
		L347.54,78.75z M349.96,60.09l-0.18,0.04l0.13-0.09L349.96,60.09z M350.05,57.63l0.31,0.18l-0.31,0.04l-0.22-0.22H350.05z
		 M352.47,59.69l0.09-0.04l-0.13-0.35l-0.57,0.31h-0.18l-0.62,0.04l-0.04,0.18l0.35-0.04l0.13,0.04L352.47,59.69z M351.42,70.34
		l0.04,0.35v-0.35H351.42z M351.72,75.93l-0.31-0.13l0.13,0.22L351.72,75.93z M351.59,58.9l0.13,0.04l0.18-0.09v-0.04h-0.18
		L351.59,58.9z M351.99,69.86l-0.22,0.22v0.13l0.18,0.31l0.09-0.66H351.99z M352.74,60.18l0.44-0.35l-0.53,0.31L352.74,60.18z
		 M353.26,63.79l0.09-0.26v-0.26l-0.18,0.13l-0.09,0.44L353,64.1l-0.09,0.35H353l0.13-0.13L353.26,63.79z M353.18,56.97h-0.04v0.35
		h0.09L353.18,56.97z M353.4,66.6l-0.22,0.04l0.26-0.4L353.4,66.6z M353.49,62.29h-0.22l0.09,0.31L353.49,62.29z M354.06,60.09
		l-0.31,0.26l-0.18,0.13l0.18,0.44l0.09-0.04L354.06,60.09z M353.66,80.47v-0.04l1.01-0.26v0.09L353.66,80.47z M354.15,58.2
		l0.13-0.09l-0.04-0.18l0.04-0.04l-0.18-0.04v0.09L354.15,58.2z M355.55,59.12l0.57-0.48l0.09-0.13v0.18l-0.66,0.66l-0.22,0.04
		l-0.18,0.09l-0.04-0.09L355.55,59.12z M361.8,77.47l-0.31,0.35l0.44,0.22l-0.4,0.09l-0.48,0.22l-0.4,0.31l-0.13,0.09l-0.66,0.09
		l-0.18,0.09l-0.48,0.35l-0.66,0.26l0.04-0.13l-0.31,0.04l0.09-0.18l-0.31,0.18l-1.36,0.09l1.14-0.31l0.09,0.09l0.53-0.22l0.04,0.22
		h0.04v-0.13l0.4-0.26l0.53-0.18v-0.09l-0.35,0.04l-0.04-0.04l0.4-0.04l0.44-0.13l0.84-0.18l-0.09-0.18l0.13-0.35h0.22l0.18-0.04
		l0.26-0.26l0.4-0.31l-0.31-0.04l-0.04-0.09l0.44-0.22l0.79-0.26l0.26-0.18l-0.18,0.31l0.09,0.13l0.4-0.09l0.31-0.09l0.4-0.31
		l-0.57,0.48l-0.66,0.26l-0.26,0.22l-0.7,0.22V77.47z M358.81,79.67l0.44-0.22l0.62-0.18l-0.22,0.26l-0.44,0.22l-0.04,0.04
		l-0.75,0.44l-0.22-0.04l-0.62,0.13l0.04-0.09l0.44-0.13l0.53-0.22l0.18-0.18L358.81,79.67z M359.07,56.7l-0.22,0.44h0.26l0.13-0.4
		l-0.13,0.22v-0.04L359.07,56.7z M359.91,55.91l-0.22,0.22l0.04,0.35l0.22-0.4l0.22-0.22L359.91,55.91z M361.58,54.72l0.26-0.13
		l0.09-0.22l-0.04-0.04l-0.13,0.22l-0.04-0.04l-0.75,0.62h-0.18l0.13-0.13l0.57-0.53l0.44-0.4v-0.04l0.66-0.31l-0.09,0.26l0.26-0.13
		l0.4-0.44l0.26-0.31l-0.04,0.18l-0.22,0.75l0.04-0.22l-0.13,0.26l-0.22,0.31l-0.09,0.09l-0.44,0.53l-0.26-0.09l0.04-0.18v-0.04
		l-0.35,0.31L361.58,54.72z M362.02,77.96l0.22-0.09l0.04,0.13l-0.18,0.18l-0.18,0.04v-0.18L362.02,77.96z M362.37,77.69l0.75-0.35
		v0.26h-0.35l-0.35,0.13L362.37,77.69z M362.99,53.14v0.22l-0.31,0.31L362.99,53.14z M370.91,68.58l-0.44,0.18v0.04h0.18l-0.22,0.4
		l-0.31,0.26l-0.44,0.44l0.09,0.35l-0.18,0.04l0.13-0.13h-0.13l-0.13,0.18l-0.31,0.4l0.22-0.04l-0.09,0.13l-0.57,0.4l-0.22,0.13
		l-0.35,0.22v0.09l0.48-0.13v0.09l-0.22,0.09v0.04l1.06,0.04l-1.06,0.4l-0.04,0.09l-0.22,0.04l-0.04,0.44l0.04,0.26l-0.4,0.13
		l-0.26-0.04H367l-0.66,0.48l0.31,0.13l0.4-0.22l0.48-0.18l-0.4,0.31l-0.09,0.13l0.18,0.09l0.57-0.35l-0.22,0.35L367.43,74
		l-0.48,0.57h-0.13l-0.48,0.13l-0.62,0.31l0.09-0.31l0.53-0.18l0.53-0.22l0.35-0.22l-0.04-0.04H367l-0.57,0.35h-0.22l-0.66,0.26
		l-0.4,0.31l-0.22,0.04l-0.13-0.04l-0.04,0.18l-0.7,0.44l0.04,0.09l0.31-0.04l0.4,0.09h-0.09l-0.62,0.09l-0.7,0.48l-0.22-0.09
		l0.31-0.35l0.13-0.09l0.57-0.57l0.31-0.4l0.57-0.35l-0.04-0.09l-0.4,0.09l0.7-0.7l0.88-0.79l0.88-0.92l0.84-1.1l0.04-0.09
		l0.79-0.79l0.13-0.13v-0.04l0.31-0.48l0.22-0.53l0.22-0.35l0.35-0.04h0.18v0.31l0.26-0.22L370.91,68.58z M364.4,76.07l0.22,0.13
		h0.44l-0.75,0.44l-0.13,0.22l-0.44,0.35l-0.13,0.04l-0.26,0.04l0.4-0.44l0.7-0.48l-0.13-0.26L364.4,76.07z M363.52,53.05
		l-0.09-0.18l0.22-0.35L363.52,53.05z M364.05,52.04l0.04,0.04l-0.13,0.31v0.22H364l0.53-0.7l0.13-0.18l0.04-0.04l-0.04-0.13
		l0.22-0.31l0.22-0.22l0.18-0.31l0.04-0.4l0.66-0.53l-0.18-0.13l0.09-0.31l0.22-0.84l-0.04-0.31l-0.04-0.79l-0.26-0.57l-0.04-0.26
		l0.22,0.04l0.26,0.18l-0.13,0.26l0.4,0.22l0.13,0.35v0.13v0.31l0.22,0.04l0.04,0.04l0.09,0.7l-0.09,0.09v-0.18L366.64,49
		l-0.04-0.31h-0.04l-0.26,0.62l-0.09,0.26l0.09,0.62l-0.18,0.13l-0.31-0.09l-0.04,0.18l-0.26,0.35v0.04l-0.13,0.26l-0.31,0.75
		l-0.31,0.44l0.22,0.13l-0.26,0.18l-0.26,0.04l-0.31,0.18L364,52.83l-0.53,0.62l0.09-0.35l0.26-0.35l0.13-0.57L364.05,52.04z
		 M364.44,51.82l-0.18,0.35l-0.09,0.04v-0.31l0.18-0.04v-0.18h0.04L364.44,51.82z M364.71,75.45l0.92-0.4l-0.4,0.22l-0.13,0.09
		L364.71,75.45z M365.32,51.91l0.04-0.57l0.4-0.18L365.32,51.91z M365.63,75.54l-0.18-0.18l0.35,0.04L365.63,75.54z M365.81,45.92
		l0.22,0.31l-0.44-0.18L365.81,45.92z M365.94,75.76l0.35-0.22v0.09l-0.31,0.18L365.94,75.76z M366.42,73.82l-0.4,0.22l0.48,0.09
		L366.42,73.82z M366.33,74.97v0.04l-0.18,0.31l-0.09-0.13L366.33,74.97z M366.16,48.21l0.04,0.66h0.09v-0.26L366.16,48.21z
		 M366.55,48.3l-0.13,0.04l0.09,0.26l0.13-0.04L366.55,48.3z M366.69,49.71l-0.18-0.13l0.13-0.13l0.09,0.26H366.69z M366.82,75.1
		l0.26-0.13l0.18-0.13l-0.35,0.31L366.82,75.1z M367.26,74.83l0.26-0.13l0.26-0.04L367.26,74.83z M368.14,71.93l-0.57,0.48v0.22
		l0.22-0.09l0.53-0.53l0.18-0.04v-0.09l-0.13-0.09L368.14,71.93z M368.54,70.7l0.26-0.13l-0.04-0.13l-0.35,0.13L368.54,70.7z
		 M368.49,73.34l0.44-0.35l0.04,0.04l-0.18,0.35L368.49,73.34z M375.58,52.92l0.09-0.13l-0.22-0.13l-0.09,0.09L375.58,52.92z"/>
	<path d="M376.45,68.67l0.04-0.09l0.31-0.09l0.09,0.4l-0.13,0.53h-0.09L376.45,68.67z M387.85,68.36l0.4-0.31l0.48,1.23l-0.09-0.04
		l-0.22,0.22l-0.31,0.84l-0.26-0.09l-0.04,0.04l0.22,0.18l-0.04,0.09l-0.13-0.04l-0.18,0.31v0.18l-0.22,0.92l-0.18-0.18l-0.04,0.18
		v0.18l-0.31,0.44l-0.48,0.97l-0.13,0.35l-0.09,0.09l-0.31,0.22h-0.13l-0.22,0.4v0.18l-0.09,0.26l-0.35,0.48l-0.26,0.35l-0.75,1.1
		l-0.44,0.53l-0.18-0.04l-0.09,0.13l-0.31,0.31l-0.09,0.13l-0.35,0.35l0.18-0.09v0.04l-0.4,0.22l-0.13,0.09l-1.1,0.66l-1.5,0.31
		l-0.13,0.09l-0.31,0.04l0.22-0.26l-0.57-0.31l-0.79-0.13l-0.13,0.13l-0.04-0.26v0.04l-0.4-0.35l0.31,0.04l0.62,0.26l0.13-0.26
		l-0.26-0.18l-0.62-0.7l-0.13-0.13l-0.4-0.66l-0.31-0.18l-0.09-0.09l0.13-0.09l-0.18-0.4l-0.04-0.35l-0.09-0.92V74.7l0.09-1.32
		l0.04-1.01l0.13-1.19l0.13-0.4l0.04-0.57v-0.22l0.4-1.45l0.09-0.22V68.1l0.18-0.88l-0.04-0.04h-0.09l-0.22,0.48l-0.31,0.57
		l-0.09-0.62h0.04l0.04,0.18h0.09l0.53-1.28l-0.04-0.04l-0.18,0.09l-0.04-0.04l0.4-0.53l0.04-0.22l0.31-0.75l0.88-1.67l0.26-0.26
		l0.57-0.88l0.48-0.79l0.26-0.13l0.22,0.18l0.84-0.44l0.18-0.04l0.79,0.13h0.04l0.48-0.13l0.88-0.04l0.22-0.18l-0.31-1.19
		l-0.44-0.44l0.26-0.31l0.53-0.4l1.01-0.18l0.35,0.09l0.35-0.04h0.13l0.7,1.01v0.26l-0.13,1.5l-0.18,0.22l0.04,0.53l-0.26,0.48
		l-0.31,0.92L386,63.39l-0.22,0.79l-0.09,0.18l-0.31,0.4l-0.04,0.35l-0.79,1.23v0.09l-0.4,0.62l-0.31,0.44l-0.4,0.35l-0.09,0.13
		l-0.13-0.04l0.04,0.18l-1.06,0.4l-0.79-0.04v0.44v0.09l0.13,0.04l0.35-0.13h0.22v0.09l-0.48,0.4l-0.44-0.09l-0.31-0.26l-0.44,0.13
		l-0.35-0.09h-0.04l-0.31-0.09l-0.13,0.31l-0.04,0.26l-0.13,0.48l-0.31,1.67l-0.26,1.8l0.04,0.31l0.04,0.75l-0.22-0.13l-0.04-4.31
		l-0.09-0.18h-0.04l-0.18,0.48l-0.48,2.9l0.04,0.92l-0.04,0.4l-0.04,0.57l-0.09,0.22l-0.04,0.26l0.18,0.57l0.22,0.26l0.22,0.4
		l0.26,0.26l-0.31-0.04l-0.26,0.13l0.18,0.18l0.09,0.04l1.19,0.62l-0.04,0.18l0.22,0.13l0.4-0.09l0.13-0.04l-0.04-0.13l-0.18-0.31
		h-0.18l-0.48-0.18l-0.44-0.26l0.57,0.13h0.35v-0.13l-0.7-0.97l-0.04-0.48l-0.22-0.88v-0.31h0.04l0.13,0.53l0.35,0.48l0.13,0.13
		l-0.13,0.31l1.54,1.23l0.22,0.04l0.53-0.22l1.36-1.41l0.97-1.1l0.09,0.04l0.4-0.26l0.44-0.7l1.36-2.29l0.44-0.88l0.66-1.19
		l0.22,0.04l0.09-0.22l-0.09-0.31L387.85,68.36z M377.95,65.81l0.18,0.18l0.13-0.09l-0.18-0.18L377.95,65.81z M380.19,67.66
		l-0.13,0.44v0.09l0.75,0.26h0.09l0.44-0.22l0.48,0.04h0.09l0.62-0.35l0.13-0.09l0.48-0.35l0.31-0.7l0.26-0.75l0.31-1.28l0.4-1.85
		l-0.04-0.53l-0.53,0.22l-1.06,0.88l-1.1,1.5l-0.57,0.88l-0.35,0.66l-0.57,1.1V67.66z"/>
	<path d="M391.02,78.35l-0.48,0.09l-0.35-0.09l-0.35,0.04l-0.13,0.04l-0.35-0.22l-0.26-0.26l0.09-0.09l-0.04-0.26l-0.26-0.22
		l-0.4-0.26l-0.22-0.22l-0.26-0.31h-0.22l-0.4,0.13l-0.26,0.09v-0.26l-0.04,0.04l-0.26-0.31l0.09-0.26h0.09l-0.48-0.7v-0.26
		l-0.35-0.04l0.09-0.35l-0.48-0.22l-0.18-0.62l0.84-1.1l0.18,0.57h0.04l-0.04,0.04l0.09,0.04l0.35,0.09l-0.04,0.13l0.09,0.26
		l0.22-0.09l0.13-0.04l-0.04,0.18l0.18,0.7l0.35,0.35l0.44,0.57l0.18,0.13l0.18,0.09l0.09,0.13l0.66-0.04l0.26-0.13l0.84-0.04
		l0.62-0.18l-0.44-0.22v-0.04l0.35,0.09l0.57-0.26v0.13l0.26-0.09v-0.09l-0.26-0.13l0.31-0.18l-0.09-0.09l0.57-0.44l0.44-0.4
		l0.66-0.57l0.04-0.18l0.35-0.84l0.22-0.79v-1.1v-0.26l-0.31-0.84l-0.75-1.36l-0.62-0.92l-0.13-0.26l-0.75-1.32l-0.53-0.97
		l-0.22-1.19l0.04-0.75l0.53-1.45l1.72-2.33l1.01-0.7l0.18-0.04l0.44,0.22l0.57,0.26l0.31-0.09l-0.48-0.13l-0.18-0.4v-0.22
		l0.18-0.22l0.31-0.13l0.31-0.31l0.18-0.09l0.62-0.44l0.09-0.04l0.48-0.26l0.26-0.09l0.35,0.13l0.26,0.18l0.18,0.48l-0.04,0.4
		l-0.26,0.48v0.13l-0.31,0.44l-0.04,0.66l-0.04,0.53l0.04,0.53h-0.09l-0.04-0.13v-0.18l-0.18,0.18v0.44l-0.31,1.72v0.35l0.13,0.22
		l-0.22,0.4l0.13,0.26l-0.13,0.13l0.04,0.09l0.13,0.53v0.26l0.04,0.13l-0.4,0.35l-0.22,0.04l-0.26-0.26l-0.09-0.57l-0.13-0.13
		l0.13-0.44l-0.04-0.13l-0.22-1.01l0.04-0.26l-0.26-1.01v-0.13l-0.22-0.26l-0.13-0.31v-0.09l-0.13-0.22l-1.45,0.84l-0.4,0.44
		l-0.7,1.1L392.25,63l-0.18,0.53l0.44,1.5l0.97,1.41l1.01,1.23l0.75,0.75l0.48,0.75l0.18,0.44l0.44,0.57l0.4,0.66l0.09,0.97
		l0.09,0.26v0.31l-0.09,0.22l-0.09,0.79l-0.44,0.97l-0.04,0.26l-0.48,0.75l-0.48,0.44l-0.53,0.66l-0.35,0.18h-0.04l-0.75,0.57
		l-0.31,0.18l-0.26,0.31l-0.66,0.44l-0.66,0.26l-0.18-0.09L391.02,78.35z M387.23,75.14l0.22,0.4l0.13-0.04l-0.09-0.13L387.23,75.14
		z M387.89,76.95l-0.04,0.09l-0.18-0.04l-0.18-0.13h0.22L387.89,76.95z M388.51,76.15l0.31,0.4l-0.26-0.4H388.51z M389.78,77.74
		l0.26,0.35l0.48-0.26L389.78,77.74z M391.46,78l0.35,0.13l0.04-0.09L391.46,78z M395.72,74.57l0.35,0.09v-0.04L395.72,74.57z
		 M396.03,61.1l-0.09,0.66l0.18-0.31l-0.09-0.48V61.1z M396.03,63.04l0.18,0.04l0.04-0.18h-0.22V63.04z"/>
	<path d="M400.83,78.4l-0.97,0.35l-0.13-0.13l-0.31,0.09l-0.53-0.13l-0.79-0.4l-0.66-0.7l-0.09-0.4l-0.13-0.48l-0.09-0.4l0.13-0.4
		l0.13,0.62l0.18-0.04l0.09-0.57l0.26-0.88l0.4,0.88l0.31-0.09l0.04-0.09l-0.31-0.97l0.04-0.04l0.18,0.4h0.09v-0.4l-0.04-0.26
		l0.13-0.4l-0.13-0.22l-0.48-0.13l0.04-0.09h0.44l0.35-0.35l-0.31-0.04l0.35-0.26l-0.35,0.13l-0.04-0.09l0.4-0.31l-0.31-0.09
		l0.31-0.22l0.09-0.13l0.13-0.22l-0.04-0.4l-0.04-0.62l0.18-0.18l0.04-0.26l-0.22-0.04l0.13-0.4l0.4,0.4l0.09-0.18l-0.31-0.31
		l0.31-0.35l-0.04-0.26l0.18-0.13l-0.13-0.26l-0.26-0.22l0.7-0.31l-0.57,0.13l0.04-0.48l0.22-1.67l0.22-0.57l-0.13-0.31l0.04-0.35
		l0.13-0.26l0.13-0.13l-0.22-0.09l0.09-0.62l0.4-1.54l0.13-0.44v-0.09l0.57-0.53l0.44-0.04l0.48-0.09l0.35,0.18l0.13,0.09l0.44,0.4
		l0.04,0.4l-0.31,0.7l-0.09,0.31l-0.13,0.4l-0.31,1.28v0.13l-0.18,0.31l-0.04,0.53l-0.13,0.62l-0.04,0.22l-0.26,0.97l-0.22,1.23
		v0.18l-0.57,1.06l-0.4,0.09l0.4,0.18l-0.31,1.19h-0.04l-0.09,0.53l-0.44,1.1l-0.04,0.22l-0.57-0.04l-0.22,0.13l-0.09,0.57l0.04,0.4
		l-0.13,0.48l-0.04,0.18l0.22,0.13l0.09-0.18l-0.04-0.35l0.22-0.22h0.09l-0.13,0.62v0.44l0.18,0.18l0.31-0.22l0.04,0.09v0.88
		l0.13,0.57l0.26,0.04l0.48-0.22l2.29-2.42l2.73-3.26l2.9-3.17l-0.75,1.23l-0.04,0.09l-0.79,1.32l-0.57,1.06l-0.13,0.18l-0.44,0.62
		l-0.35,0.35l-0.48,0.88l-0.44,0.75l-0.31,0.35l-0.48,0.75l-0.13,0.18l-0.13,0.4l-0.13,0.18l-0.35,0.26h-0.09l-0.48,0.75l-0.4,0.22
		l0.09,0.09l-0.44-0.04l-0.57,0.53L400.83,78.4z M398.19,74.39l-0.09,0.04l-0.09-0.04v-0.31L398.19,74.39z M399.95,74.31l-0.57,0.35
		l-0.09-0.04l0.04-0.7h0.18l0.04,0.48L399.95,74.31z M399.46,73.42l0.18,0.04l0.26-0.4l-0.04-0.18l-0.31,0.22L399.46,73.42z
		 M399.59,72.81l0.18,0.04l0.13-0.26l0.18-0.09l0.13-0.79l0.09-0.18l-0.4-0.48l0.22,0.31l-0.13,0.22l-0.26,0.48l-0.13,0.66V72.81z
		 M399.86,74.57l-0.04,0.66l-0.22-0.4L399.86,74.57z M399.81,70.78l0.35,0.04l0.13-0.4l-0.09-0.04L399.81,70.78z M403.91,54.81
		l-0.53,0.35l-0.79-0.66l-0.13-1.1l0.09-1.06l0.48-0.57l0.18,0.22l1.06-0.4l0.84-0.22l0.4,0.04l0.13-0.04l0.35-0.09l0.18,0.53
		l-0.13,0.35l-0.79,0.48l-0.22,0.22l-0.35,0.62l-0.22,0.31l-0.4,0.79L403.91,54.81z"/>
	<path d="M423.36,70.65l0.53-0.75l0.44,0.09l-1.19,1.67l-1.28,1.58l-3.08,2.95l-0.79,0.62l-0.35,0.31l-0.4,0.31l-0.13,0.31v0.57
		l-0.09,0.35l-0.04,0.62l-0.04,0.57v0.26l-0.04,0.18v0.53l-0.22,1.19v0.48l-0.13,0.75l-0.35,0.48l0.09,0.48l-0.18,1.01l-0.09,0.09
		l-0.04,0.18l-0.13,0.4l-0.35,0.97l-0.31,0.84l-0.48,0.88l-0.88,1.67l-0.22,0.35l-0.22,0.35l-0.57,0.84l-0.31,0.31l-0.26,0.35
		l-0.92,0.66l-0.66,0.22l-0.62,0.09l-0.4-0.04l-0.4-0.09l-0.4,0.13h-0.04l-0.44-0.53l-0.26-0.22l-0.22-0.31l-0.4-0.84l-0.26-0.88
		l-0.13-0.97V88.7l0.04-0.48v-0.18l0.18-1.28l0.13-0.48l0.18-0.53l0.31-0.79l0.18-0.44l0.18-0.4l0.18-0.22l0.18-0.26l0.13-0.31
		l0.13-0.09l0.09-0.22l0.18-0.22l0.04-0.13l0.09-0.13l0.18-0.26l0.22-0.31l0.7-0.53l0.18-0.22l0.22-0.18l0.4-0.18l0.13-0.31
		l0.31-0.18l0.04-0.13l0.18-0.13l0.35-0.09l0.04-0.18l0.18-0.22l0.18-0.13h0.26l0.44-0.26l-0.35,0.09l0.4-0.31l0.4-0.09l0.13-0.22
		l0.09-0.22l0.53-0.26v-0.18l0.09-0.22l0.09-0.57l0.13-1.32L415,74.7l0.04-0.97l0.09-0.7l0.35-2.82l0.31-1.89l0.18-0.84l0.04-0.62
		l-0.44,0.84l-0.26,0.48l-0.22,0.62l-0.97,2.29l-1.19,2.2l-0.66,0.97l-0.7,0.92l-0.35,0.31l-0.18,0.26l-0.44,0.04l-0.4,0.04
		l-0.48-0.18l-0.4,0.04l-0.44,0.04l-0.57-0.04l-1.06-3.61l0.09-0.53l0.18-0.97l0.44-1.58l0.26-0.7l0.31-0.66l0.66-1.36l0.09,0.57
		l-0.13,0.18l-0.09,0.26l-0.18,0.57l-0.26,0.18l-0.18,0.18l0.22,0.31l-0.35,0.44l-0.04,0.09l-0.4,1.76l-0.13,0.75l-0.09,0.4
		l0.18,0.22v0.22l0.04,0.22l-0.04,0.26l0.09,0.31l0.04,0.57l0.18,0.26l0.13-0.84l-0.04-0.35l0.22-0.48V72.1l0.04-0.31l0.26-0.35
		l0.13-0.4l-0.18,0.13L408.61,71l0.09-0.22l0.18-0.13l0.22-0.66l0.22-0.13l0.04-0.22l0.18-0.22l-0.13-0.26l0.22-0.35l0.04,0.26
		l0.04,0.22h0.09l0.35-0.18l0.04-0.04l-0.4-0.48l-0.26,0.09l0.22-0.31l0.31-0.44l0.09-0.44l0.22-0.4l0.13-0.44l0.35-0.4l0.26-0.35
		l0.31-0.4l0.04,0.4l-0.18,0.13v0.4l0.26,0.22l0.13-0.26l0.35-0.35l0.09-0.4L412,65.5v-0.09l-0.18-0.13l0.22-0.13v-0.53l0.18-0.31
		l0.18-0.44l-0.53,0.48l-0.4,0.09l-0.04-0.18l-0.18,0.22l-0.22,0.13h-0.13l0.09,0.22l-0.4,0.22l-0.26,0.31l-0.62,0.18l-0.22,0.09
		l0.31-0.44l0.57-0.92l0.35-0.4l0.31-0.44l0.26-0.35l0.18-0.31l0.04-0.04l0.4-0.48l0.22-0.22h0.31l0.04,0.31l0.35-0.26l0.09-0.26
		l-0.35-0.18l0.44-0.44l0.18,0.13l0.62-0.48l0.09-0.26l0.18-0.31l0.09-0.26l-0.18-0.09l0.26-0.04l0.13,0.04v-0.22l0.13-0.04
		l0.44-0.31l0.66-0.53l0.44-0.26l0.22-0.09l0.04-0.04l0.84-0.53l0.44-0.22l0.48-0.26l0.44-0.13L419,57.1l0.48-0.13h0.53l0.22-0.04
		l0.62,0.22l0.84,0.44l0.4,0.62l0.22,0.92l0.04,2.2l-0.31,0.18l-0.09-0.35l-0.04-1.19l-0.22-1.06l-0.57-0.75l-0.44-0.48h-0.09
		l-0.79,0.26l-0.48,0.22L419,58.2l-1.67,1.28l-0.26,0.31l-0.35,0.4l-1.63,1.76l-0.22,0.31l-0.18,0.22l-0.26,0.44l-0.31,0.35
		l-0.44,0.79l-0.26,0.4l-0.09,0.18l-0.13,0.22l-0.44,0.79l-0.18,0.44l-0.31,0.66l-0.44,0.92l-0.4,1.06v0.09l-0.18,0.4l-0.4,0.97
		l-0.04,0.18v0.44l-0.22,0.35v0.22l-0.09,0.22v0.4v0.18l-0.13,0.44l-0.09,0.7l0.13,1.14l0.75-0.57l0.62-0.88l0.26-0.44l0.26-0.44
		l0.57-1.14l0.48-1.01l0.22-0.4l0.22-0.53l1.06-2.2l1.45-2.86l0.75-1.28l0.35-0.53l0.4-0.44l0.09,0.35l-0.22,0.48v0.31h0.18
		l-0.09,0.48v0.79l-0.18,1.23l-0.09,1.1v1.23l-0.18,2.38l-0.13,4.8v0.48l-0.04,0.53l0.22,0.18l0.44-0.26l0.7-0.53l0.31-0.04
		l0.4-0.31l1.5-1.28l1.41-1.45l0.26-0.35l0.31-0.35l0.35-0.4L423.36,70.65z M413.81,82.97l0.31-1.72l0.04-0.66l0.18-0.66V79.5
		l-0.75,0.62l-0.66,0.57l-0.75,0.57l-0.84,0.7l-1.45,1.63l-1.06,1.8l-0.35,0.88l-0.26,1.14l-0.13,1.98l0.4,1.8l0.44,0.66l0.62,0.31
		l0.88-0.66l0.31-0.35l0.57-0.7l0.44-0.75l0.75-1.58l0.57-1.72l0.4-1.63l0.18-0.66L413.81,82.97z M409.05,70.96l0.04,0.18l0.04-0.22
		L409.05,70.96z M409.8,65.94l0.04-0.04v0.09l-0.4,0.57l-0.04-0.09L409.8,65.94z M410.15,64.98v0.04l0.22-0.13v-0.22L410.15,64.98z
		 M410.55,67.53l0.35-0.31l-0.09-0.04l-0.31,0.26L410.55,67.53z M410.55,68.76l-0.04,0.31l0.13-0.18L410.55,68.76z M410.95,64.01
		l-0.4,0.53l0.48-0.53H410.95z M411.04,66.21l-0.09,0.48l0.13,0.26l0.26,0.22l0.04-0.22l-0.09-0.09v-0.18l-0.18-0.13V66.3
		L411.04,66.21z M411.12,63.79l0.35-0.18l0.22-0.35l0.31-0.31l0.18-0.31L412,62.51l-0.22,0.26l-0.18,0.35l-0.26,0.35L411.12,63.79z
		 M412.53,79.85l0.04-0.18l-0.09,0.22L412.53,79.85z M413.59,60.62l0.04,0.22l-0.22,0.26l-0.13-0.31L413.59,60.62z"/>
	<path d="M437.52,84.16l-0.88,0.26l-0.66-0.18l-0.09-0.09l-1.23-0.4v-0.18l0.04-0.13v-0.09h-0.22l0.04-0.09l-0.48-0.75l-0.13-0.31
		l-0.04-0.13l-0.26-0.18l-0.18,0.18l-0.18-0.48l0.04-0.04l0.04,0.13l0.09-0.09l0.04-0.22l-0.04-0.57l-0.13-0.88l-0.18-0.84
		l-0.04-0.75v-0.22l0.22-0.22l-0.04-0.22h-0.18v-0.18l0.22,0.04v-0.31l-0.26,0.09v-0.79l0.04-0.35l0.09-0.7l-0.09-0.13l0.04-0.26
		l0.09-0.79l-0.04-0.13v-0.44l-0.09-0.26l0.09-0.18l0.09-0.04v-0.09l-0.09-0.66l0.13-0.4v-1.58l0.26-0.66l-0.04-0.13l0.04-1.01
		l-0.04-0.62l0.13-1.01l0.04-0.26l0.09-1.23l0.31-1.72l0.13-0.4l-0.09-0.22l0.18-0.35l-0.09-0.35l0.04-0.4v-0.53l0.04-0.18
		l-0.04-0.35v-0.18l0.26-1.01l-0.04-0.22l-0.44-0.48v-0.09v-0.48l-1.54,1.19l-0.4,0.44l-1.01,1.45l-0.7,1.01l-1.1,1.94l-0.31,0.79
		l-0.53,1.23l-0.44,1.06l-0.04,0.09l-0.4,1.14l-0.22,0.48l-0.09,0.26l-0.48,1.23l-0.26,0.53l-0.4,0.88l-0.09,0.13l-0.22,0.79
		l-0.57,1.63l-0.22,0.26l-0.62,1.54l-0.04,0.09v0.04l-0.66,0.53l-0.04,0.04l-0.48-0.13l-0.13-0.13l0.09-0.35l-0.44,0.04l-0.13-0.22
		l-0.4,0.13l-0.13-0.35l0.04-0.09l-0.09-0.35v-0.53h-0.09l-0.04,0.09l-0.75-0.7l0.22-0.48h0.13l-0.09-0.13l0.26-0.44l0.4-0.84
		l0.09-0.09l0.04-0.13l0.09-0.48l0.13-0.4l0.48-1.06l0.4-1.14l0.09-0.22l0.04-0.18h-0.04l-0.22,0.26l-0.04-0.04l0.88-2.11
		l-0.04-0.13l0.53-0.4l-0.13-0.04l0.18-0.22l-0.22-0.31l0.44-0.7l-0.04-0.26l0.09-0.48l0.09-0.18l0.13-0.48l0.09-0.44l-0.04-0.22
		l0.13-0.66l-0.13-0.26l0.09-0.22v-0.22l0.04-0.44l-0.04-0.13l-0.09-0.09l0.04-0.09l-0.18-0.62l-0.04-0.57l-0.22-0.13L424.45,60
		l0.09-0.18l0.75-0.44l0.62-0.09l0.35,0.04h0.53l0.57,0.44l-0.13,2.38l-0.35,1.06l-0.31,0.53l-0.04,0.13h0.04l0.22-0.18l-0.35,0.84
		l0.13,0.04l-0.22,0.22l-0.09,0.31v0.35l-0.04,0.31l-0.44,0.35l0.22,0.09l-0.09,0.04l0.13,0.26l-0.13,0.26l-0.09,0.13l-0.13,0.7
		l0.09,0.35l-0.31,0.09l0.09-0.13h-0.04l-0.13,0.22l0.13,0.26l0.09,0.18l-0.18,0.4l0.04,0.4l-0.04,0.35l-0.31,0.79l-0.22,0.7
		l0.18,0.04l0.35-0.26l-0.09,0.31l-0.22,0.35l-0.13,0.7l0.04,0.26l0.35-0.84l0.26-0.48l0.31-0.88l0.04-0.09l0.26-0.62l0.22-0.26
		l0.13-0.35l0.26-0.44l0.09-0.31l0.66-1.45l0.66-1.54l0.48-0.92l0.48-0.79l0.13-0.22l0.18-0.26l0.44-0.92l0.35-0.53l0.22-0.31
		l0.48-0.7l0.88-1.19l0.22-0.22l0.31-0.35l0.09,0.04l0.13-0.13l0.04-0.22l1.01-0.79l1.01-0.44l0.48-0.18l0.18,0.04l0.53-0.09
		l0.22,0.13l0.04,0.66l0.22,0.09l0.04-0.18l0.04,0.53l-0.04,0.18v0.57l0.18-0.53l0.18,0.04v0.62l-0.04,0.13l0.04,0.13l0.22-0.18
		L436.91,60l-0.13-0.04l-0.09,0.22l-0.04,0.48v0.09v0.35l-0.22,0.62v0.18l-0.18,0.7l-0.04,0.48h0.09l0.48-0.48l-0.09-0.18l0.13-0.04
		l0.09-0.22h0.04l0.04,0.22l-0.09,0.35l-0.09,0.13l-0.53,0.57l-0.18-0.09l-0.22,1.41l0.26-0.35l0.35-0.66l0.22-0.13l0.09,0.09
		l-0.09,0.18l-0.18,0.09l0.13,0.04l-0.18,0.26h-0.09l-0.26,0.35l0.09,0.18l-0.31,0.13l-0.09,0.48h0.18v0.04l-0.26,0.09v0.7
		l-0.09,0.48v0.35l-0.04,0.44v0.26l0.57-1.06v-0.35l-0.26,0.18l0.79-1.63l-0.18,0.92l-0.04,0.04l0.09,0.18l-0.18,0.57l-0.04,0.09
		l-0.04,0.48l-0.26,0.48l-0.4,0.62l0.18,0.22l-0.18,0.13l-0.18,0.26l-0.22,0.44l0.31,0.31l-0.31,0.75v0.4l-0.18,0.44v0.04v0.4h0.09
		l0.13-0.53h0.04v0.66h0.04l0.35-0.57l0.26-0.66l0.04,0.04l-0.04,0.97l-0.4,1.14h-0.13v-0.18l0.35-0.84l-0.09-0.09l-0.48,0.48
		l-0.18-0.13l-0.04,0.13l0.13,0.26v0.09l-0.31,0.18v0.09l0.26,0.4l0.18-0.04v0.13l-0.04,0.44l0.04,0.18l0.22,0.31l-0.18,0.62h0.09
		l-0.13,0.09l-0.09,0.62l-0.09,0.66v0.09l0.04,0.48l0.22-0.26v0.09l0.13,0.35l-0.66,0.62l0.18,0.7l0.22,0.22v0.4l0.35,0.04
		l-0.18,0.35l0.04,0.09l0.04,0.26l-0.18,0.13l0.04,0.13l0.09,0.22l0.18,0.09l0.09-0.04l-0.04-0.7l0.22,0.31l0.09,0.84v0.31
		l0.04,0.57l0.09-0.04v-0.13l0.53,0.66l0.79,0.44l1.36-0.66l2.64-2.55l1.45-1.85l0.92-1.28l1.1-2.02l0.26-0.53l-0.04,0.22
		l-0.66,2.07l-1.06,1.98l-0.79,1.36l-0.4,0.44v0.09l-0.26,0.4v0.04l-0.18,0.35l-1.06,1.28l-0.75,0.62l-0.22,0.35l-0.22,0.26
		l-1.19,0.88l-0.26,0.13l0.04-0.18l-0.4,0.26L437.52,84.16z M424.94,70.12l0.04,0.13h0.18l0.13-0.35l0.04-0.26l-0.31,0.26
		L424.94,70.12z M434.09,83.02L434,83.06l-0.48-0.66l0.35,0.31L434.09,83.02z M433.92,65.77v0.44l0.09-0.44H433.92z M434.79,73.03
		l0.04,0.35l0.18-0.31L434.79,73.03z M435.81,77.78l-0.44,0.4l-0.09-0.04l0.31-0.44L435.81,77.78z M435.81,75.63l-0.4,0.35
		l0.35-0.53L435.81,75.63z M436.42,60.53l0.04,0.04l0.18-0.26l-0.04-0.09L436.42,60.53z"/>
</g>
</svg>
